<svg xmlns="http://www.w3.org/2000/svg" width="72" height="72" fill="none">
  <path fill="#fff" d="M0 0h72v72H0z"/>
  <g clip-path="url(#a)">
    <path fill="#DF2B26" d="M25.834 12.8 15 18.135l2.148 2.564v24.398l8.686-8.69V12.8Z"/>
    <path fill="#303030" d="M35.894 50.373c0 1.339-.905 1.912-1.912 1.912-1.335 0-1.646-.813-1.646-1.697v-7.67h-.057l-4.298 4.29v4.381c0 2.413 1.29 4.538 4.267 4.538a5.45 5.45 0 0 0 3.646-1.45v1.17h4.356V42.918h-4.356v7.454Zm14.98-7.717a5.08 5.08 0 0 0-3.678 1.48V42.92h-4.371V60h4.37v-5.324a5.264 5.264 0 0 0 3.68 1.456c3.608 0 5.855-2.89 5.855-6.735 0-3.798-2.247-6.738-5.855-6.738v-.003Zm-1.17 9.748c-1.67 0-2.508-1.387-2.508-3.034 0-1.646.814-3.01 2.509-3.01 1.65 0 2.413 1.383 2.413 3.01 0 1.6-.763 3.034-2.413 3.034Z"/>
    <path fill="#DF2B26" d="M42.933 12A13.977 13.977 0 0 0 30.28 31.962l.146.153 8.65-8.651-2.72-2.719H48.19v11.836l-2.72-2.721-8.7 8.699A13.997 13.997 0 1 0 42.934 12Z"/>
  </g>
  <defs>
    <clipPath id="a">
      <path fill="#fff" d="M15 12h41.936v48H15z"/>
    </clipPath>
  </defs>
</svg>
