<svg xmlns="http://www.w3.org/2000/svg" width="72" height="72" fill="none">
  <path fill="#fff" d="M0 0h72v72H0z"/>
  <path fill="#000" d="M51.212 20.326H44.15l3.662 6.263 3.4-6.263Zm9.816 35.354L35.956 14.063 10.97 55.593h13.383c1.785 0 3.542-.45 5.095-1.303 1.676-.921 2.942-2.257 3.931-3.875 1.157-1.894 2.28-3.81 3.419-5.715l2.912-4.877-3.756-6.282-1.666 2.675c-1.898 3.167-3.695 6.408-5.662 9.533-.99 1.567-2.28 3.047-4.186 3.429a5.454 5.454 0 0 1-.876.098c-.393.014-.786.007-1.175.007l13.568-23.057L53.38 55.68h7.648Z"/>
</svg>
