<svg xmlns="http://www.w3.org/2000/svg" width="72" height="72" fill="none"><path fill="#fff" d="M0 0h72v72H0z"/><path fill="#18B4F4" d="M56.23 25.936A12.915 12.915 0 0 1 51.428 36L16.912 16.398a1.898 1.898 0 0 1-.365-.271A1.825 1.825 0 0 1 17.824 13H43.3c3.43 0 6.718 1.363 9.143 3.789a12.94 12.94 0 0 1 3.788 9.147Z"/><path fill="#FD6B3C" d="M56.23 46.06a12.942 12.942 0 0 1-7.982 11.955c-1.569.65-3.25.985-4.949.985H17.824a1.823 1.823 0 0 1-1.765-2.2c.074-.354.251-.677.51-.93a1.74 1.74 0 0 1 .343-.268l13.584-7.713L51.426 36a12.92 12.92 0 0 1 4.803 10.06Z"/><path fill="#A97FF2" d="m51.429 35.998-20.933 11.89-13.584 7.714c-.13.073-.251.162-.359.265a28.432 28.432 0 0 0 8.07-19.868 28.417 28.417 0 0 0-8.067-19.872c.11.104.233.195.365.27L51.43 36Z"/></svg>