<svg xmlns="http://www.w3.org/2000/svg" width="72" height="72" fill="none">
  <path fill="#fff" d="M0 0h72v72H0z"/>
  <path fill="url(#a)" d="M36.279 35.833h17.337l2.548-1.611 3.813-16.137s-7.077-.566-13.928 1.591c-5.24 1.64-8.714 5.198-10.036 6.78v7.398l.266 1.979Z"/>
  <path fill="url(#b)" d="M36.013 33.854v-7.398c-1.334-1.582-4.813-5.15-10.067-6.794-6.857-2.146-13.929-1.591-13.929-1.591l3.802 16.15 2.548 1.612H35.73l.283-1.98Z"/>
  <path fill="url(#c)" d="m37.98 47.952 13.768 5.22 3.496-14.752-1.628-2.587H36.282l1.698 12.12Z"/>
  <path fill="url(#d)" d="m20.25 53.173 13.767-5.22 1.707-12.12H18.381l-1.63 2.587 3.499 14.753Z"/>
  <g fill="#fff" opacity=".8">
    <path d="M56.294 25.157c-.167.158-.654.589-1.328 1.186-3.13 2.769-10.46 9.252-12.663 12.264a11.65 11.65 0 0 0-1.483 2.494 13.397 13.397 0 0 1-.566-.393c.028-.153.062-.306.104-.459.3-1.082.969-2.067 1.875-3.213 2.264-2.854 9.435-8.87 12.501-11.438.66-.566 1.099-.922 1.26-1.067a39.066 39.066 0 0 0 3.256-3.29l.119-.492a38.175 38.175 0 0 1-3.54 3.607c-.158.144-.62.529-1.253 1.061-3.06 2.574-10.249 8.6-12.525 11.469-.925 1.169-1.605 2.177-1.916 3.295-.034.119-.063.24-.088.36a7.62 7.62 0 0 1-.394-.346c.01-.564.106-1.123.284-1.659.348-1.081 1.07-2.066 2.05-3.213 2.3-2.695 9.341-8.258 12.357-10.633.628-.499 1.044-.827 1.203-.96a39.779 39.779 0 0 0 4.048-3.915l.116-.482a39.692 39.692 0 0 1-4.314 4.219c-.156.13-.595.475-1.2.954-3.013 2.378-10.073 7.952-12.39 10.664-.996 1.17-1.735 2.177-2.094 3.295a5.993 5.993 0 0 0-.283 1.51c-.077-.083-.15-.168-.224-.253a5.945 5.945 0 0 1 .283-2.893c.402-1.093 1.18-2.075 2.228-3.213 2.31-2.514 9.25-7.644 12.21-9.824.567-.427.994-.733 1.15-.85a41.757 41.757 0 0 0 4.813-4.381l.11-.468a41.415 41.415 0 0 1-5.062 4.666c-.153.122-.566.427-1.132.85-2.97 2.19-9.909 7.323-12.244 9.854-1.068 1.158-1.86 2.163-2.265 3.292a6.1 6.1 0 0 0-.348 2.628c-.02-.029-.04-.057-.057-.085-.385-1.591-.32-2.919.19-4.17.484-1.18 1.44-2.242 2.403-3.216 2.743-2.77 6.07-4.977 9.291-7.115.029-.022 2.97-2.001 3.868-2.652a47.004 47.004 0 0 0 4.928-4.105l-.345-.014a46.712 46.712 0 0 1-4.742 3.929c-.895.648-3.83 2.627-3.861 2.65-3.23 2.14-6.568 4.354-9.329 7.142-.98.989-1.953 2.073-2.454 3.293a6.377 6.377 0 0 0-.385 3.349c-.538-1.982-.479-3.533.17-4.968.566-1.226 1.616-2.313 2.579-3.216 2.242-2.104 9.283-6.537 11.935-8.21.513-.326.875-.567 1.022-.649a51.597 51.597 0 0 0 4.476-3.343h-.356a51.487 51.487 0 0 1-4.247 3.154c-.144.096-.507.322-1.016.645-2.659 1.67-9.71 6.112-11.973 8.233-.98.917-2.058 2.027-2.633 3.29a6.614 6.614 0 0 0-.453 3.858c-.603-2.234-.529-3.938.233-5.47.504-1.007 1.353-1.998 2.757-3.216 2.18-1.893 9.164-5.885 11.794-7.389.481-.283.818-.467.96-.552a61.87 61.87 0 0 0 3.898-2.547h-.413a59.613 59.613 0 0 1-3.604 2.35c-.142.084-.479.282-.957.548-2.636 1.506-9.626 5.507-11.83 7.415-1.416 1.24-2.297 2.265-2.815 3.29-.85 1.72-.88 3.643-.076 6.228.118.384.275.755.47 1.107.048.147.096.283.147.447.103.306.23.603.382.889.07.22.147.442.232.67.085.23.159.38.25.567.104.32.229.651.37.994l.051.113c.108.337.238.685.39 1.042.112.38.246.752.403 1.115.229.843.57 1.65 1.016 2.401.733 1.28 1.826 2.316 2.959 3.29l.654.246c-1.291-1.081-2.588-2.217-3.398-3.652a12.647 12.647 0 0 1-.34-.631c.904 1.31 2.166 2.284 3.497 3.31.67.514 1.364 1.05 1.999 1.627h.014l.566.22c-.142-.135-.283-.282-.436-.407a27.73 27.73 0 0 0-2.019-1.648c-1.562-1.2-3.037-2.335-3.91-4.034l-.144-.283c.912 1.251 2.175 2.152 3.5 3.086.679.484 1.384.982 2.03 1.532a21.79 21.79 0 0 1 2.363 2.287l.448.17a20.357 20.357 0 0 0-2.659-2.636c-.656-.566-1.364-1.059-2.05-1.543-1.582-1.132-3.082-2.185-3.963-3.873 0-.053-.02-.107-.028-.161.914 1.132 2.146 1.942 3.431 2.78.694.453 1.416.92 2.072 1.447a20.53 20.53 0 0 1 3.533 3.425c.233.306.445.617.637.929l.351.133c-.242-.417-.51-.82-.803-1.203a20.601 20.601 0 0 0-3.573-3.468c-.668-.532-1.39-1.002-2.095-1.461-1.376-.898-2.69-1.758-3.598-3.032 0-.133-.015-.266-.015-.4.867.85 1.937 1.501 3.04 2.166.735.425 1.448.886 2.136 1.382a23.573 23.573 0 0 1 3.785 3.366 10.7 10.7 0 0 1 1.826 2.916l.297.11a10.834 10.834 0 0 0-1.945-3.179 23.86 23.86 0 0 0-3.822-3.397 25.115 25.115 0 0 0-2.154-1.396c-1.158-.696-2.265-1.37-3.151-2.29 0-.181.034-.362.062-.544a19.808 19.808 0 0 0 2.525 1.572c.428.237.85.504 1.277.761.306.19.612.377.923.566a19.58 19.58 0 0 1 4.026 3.304 10.704 10.704 0 0 1 2.471 3.856l.1-.41a11.207 11.207 0 0 0-2.401-3.607 19.903 19.903 0 0 0-4.08-3.346 24.26 24.26 0 0 1-.914-.567c-.422-.26-.85-.529-1.289-.767a18.617 18.617 0 0 1-2.59-1.63c0-.049.02-.097.031-.145.04-.17.09-.337.148-.501a30.4 30.4 0 0 0 1.834 1c.631.325 1.214.659 1.806 1.002l.467.283a21.896 21.896 0 0 1 4.27 3.23c1.415 1.342 2.378 2.712 2.913 4.159l.096-.4a11.663 11.663 0 0 0-2.837-3.935 22.043 22.043 0 0 0-4.326-3.278l-.467-.283a42.306 42.306 0 0 0-1.817-1.008c-.609-.311-1.271-.651-1.857-1.014.379-.889.873-1.724 1.469-2.485 2.191-2.973 9.504-9.444 12.63-12.207.701-.62 1.163-1.031 1.333-1.192a36.63 36.63 0 0 0 2.431-2.548l.116-.498a37.831 37.831 0 0 1-2.709 2.876Zm-16.93 15.437c-.033-.147-.067-.283-.093-.436.045.048.096.097.145.145v.385l-.051-.094Zm.473 1.255c-.025-.12-.05-.238-.073-.357.05.056.102.11.155.164v.328l-.082-.136Zm.097-.521a3.394 3.394 0 0 1-.238-.284 5.626 5.626 0 0 1-.04-.526c.11.096.224.19.34.283-.02.178-.048.354-.062.527Zm.472 1.93c-.04-.068-.079-.133-.118-.204-.04-.07-.034-.17-.049-.251l.176.195a4.047 4.047 0 0 0-.009.26Zm.032-.589a6.94 6.94 0 0 1-.258-.317 5.153 5.153 0 0 1-.028-.464c.116.108.232.21.353.309a6.81 6.81 0 0 0-.067.472Zm.127-.767v.031a5.122 5.122 0 0 1-.405-.373c.01-.198.028-.396.057-.592.17.125.348.243.53.36-.071.188-.132.38-.182.574ZM31.2 28.32c-2.194-1.909-9.195-5.91-11.83-7.415-.477-.284-.813-.465-.955-.55a58.685 58.685 0 0 1-3.604-2.35h-.416a58.656 58.656 0 0 0 3.898 2.549c.142.085.482.283.96.552 2.63 1.503 9.626 5.495 11.797 7.389 1.415 1.217 2.265 2.208 2.754 3.216.762 1.531.85 3.236.235 5.47a6.59 6.59 0 0 0-.455-3.86c-.567-1.262-1.654-2.372-2.633-3.29-2.265-2.12-9.314-6.561-11.97-8.232-.512-.322-.872-.549-1.016-.645A51.488 51.488 0 0 1 13.718 18h-.36a51.666 51.666 0 0 0 4.477 3.352c.147.096.506.323 1.022.648 2.65 1.668 9.69 6.101 11.935 8.21.963.903 2.022 1.982 2.58 3.216.648 1.436.704 2.995.166 4.969a6.35 6.35 0 0 0-.385-3.355c-.5-1.22-1.475-2.304-2.454-3.293-2.758-2.788-6.095-5.002-9.326-7.145-.028-.02-2.966-1.999-3.861-2.647a46.698 46.698 0 0 1-4.742-3.93l-.323.015a46.71 46.71 0 0 0 4.93 4.105c.896.65 3.835 2.63 3.87 2.655 3.218 2.135 6.556 4.343 9.288 7.112.96.974 1.916 2.035 2.4 3.216.513 1.251.567 2.579.193 4.17l-.06.085a6.102 6.102 0 0 0-.345-2.628c-.413-1.132-1.209-2.134-2.265-3.292-2.335-2.522-9.285-7.664-12.255-9.855-.566-.424-.988-.73-1.133-.849A41.209 41.209 0 0 1 12 18.091l.11.467a41.757 41.757 0 0 0 4.813 4.382c.156.122.566.43 1.147.85 2.964 2.188 9.908 7.312 12.213 9.826 1.047 1.132 1.826 2.12 2.225 3.213.33.927.428 1.92.283 2.893-.074.085-.147.17-.226.252a5.987 5.987 0 0 0-.283-1.508c-.352-1.113-1.082-2.121-2.087-3.279-2.316-2.712-9.373-8.286-12.389-10.664a88.49 88.49 0 0 1-1.197-.954 39.486 39.486 0 0 1-4.315-4.236l.114.485a40.076 40.076 0 0 0 4.048 3.915c.161.133.566.461 1.206.96 3.01 2.378 10.056 7.946 12.358 10.636.976 1.132 1.698 2.132 2.05 3.213a5.8 5.8 0 0 1 .282 1.659c-.127.119-.26.235-.396.345a5.533 5.533 0 0 0-.088-.36c-.311-1.132-.99-2.125-1.916-3.295-2.265-2.873-9.465-8.9-12.533-11.474a63.619 63.619 0 0 1-1.255-1.061 37.834 37.834 0 0 1-3.536-3.607l.117.492a39.064 39.064 0 0 0 3.252 3.29c.165.145.6.513 1.263 1.068 3.063 2.567 10.24 8.583 12.499 11.437.909 1.132 1.574 2.132 1.877 3.213.042.153.076.306.105.459-.181.136-.371.266-.567.393a11.423 11.423 0 0 0-1.483-2.494c-2.205-3.012-9.532-9.495-12.646-12.264a83.7 83.7 0 0 1-1.33-1.186 38.998 38.998 0 0 1-2.71-2.865l.119.498c.85.96 1.67 1.812 2.429 2.548.17.161.634.566 1.336 1.192 3.109 2.752 10.424 9.223 12.612 12.216a11.196 11.196 0 0 1 1.47 2.485c-.59.363-1.218.685-1.86 1.014-.643.328-1.22.665-1.815 1.008l-.47.283c-1.568.905-3.019 2-4.32 3.258a11.625 11.625 0 0 0-2.848 3.936l.093.399c.538-1.447 1.5-2.831 2.916-4.16a21.876 21.876 0 0 1 4.286-3.244l.47-.283a40.56 40.56 0 0 1 1.807-1.005 28.657 28.657 0 0 0 1.831-.996c.057.164.108.331.15.501 0 .048.02.096.029.144-.815.62-1.68 1.17-2.588 1.645-.43.238-.866.507-1.285.767-.303.187-.609.374-.918.567a19.878 19.878 0 0 0-4.076 3.346 11.158 11.158 0 0 0-2.4 3.607l.095.41a10.716 10.716 0 0 1 2.475-3.856 19.51 19.51 0 0 1 4.014-3.315c.309-.184.617-.37.92-.566.42-.258.85-.524 1.28-.762a19.57 19.57 0 0 0 2.522-1.57c.03.18.052.36.063.543-.875.92-1.982 1.593-3.148 2.29-.742.428-1.461.894-2.155 1.396a23.74 23.74 0 0 0-3.822 3.397 10.77 10.77 0 0 0-1.945 3.18l.283-.111a10.71 10.71 0 0 1 1.83-2.916 23.689 23.689 0 0 1 3.793-3.344c.685-.51 1.415-.954 2.134-1.381 1.107-.665 2.175-1.311 3.04-2.166v.4c-.91 1.273-2.224 2.134-3.606 3.034-.696.456-1.415.926-2.09 1.458a20.795 20.795 0 0 0-3.583 3.468c-.293.383-.56.785-.801 1.203l.35-.133c.193-.311.405-.623.638-.928a20.432 20.432 0 0 1 3.533-3.426c.66-.526 1.376-.994 2.078-1.45 1.28-.849 2.51-1.641 3.422-2.777 0 .054-.017.108-.025.162-.88 1.698-2.38 2.749-3.963 3.873-.686.484-1.393.985-2.047 1.542a20.568 20.568 0 0 0-2.662 2.636l.45-.17a21.497 21.497 0 0 1 2.362-2.287c.648-.55 1.353-1.048 2.032-1.532 1.322-.937 2.588-1.834 3.497-3.086a4.366 4.366 0 0 1-.145.283c-.872 1.7-2.347 2.832-3.912 4.038-.674.52-1.373 1.058-2.016 1.644-.15.136-.283.284-.436.408l.566-.22h.017c.634-.581 1.331-1.116 2.005-1.634 1.325-1.02 2.587-1.982 3.488-3.304-.102.207-.216.416-.337.631-.821 1.433-2.118 2.568-3.398 3.652l.654-.246c1.133-.971 2.228-2.01 2.959-3.29.448-.75.791-1.56 1.019-2.403.157-.362.29-.734.402-1.113.153-.36.283-.705.388-1.042.017-.036.037-.073.05-.113.145-.342.267-.674.374-.996.088-.179.173-.363.247-.567.073-.203.161-.45.235-.67.145-.29.268-.59.368-.898.05-.15.099-.3.144-.447.194-.353.352-.723.473-1.107.801-2.588.779-4.51-.08-6.228-.506-1.04-1.372-2.053-2.802-3.293Zm.227 13.588a5.154 5.154 0 0 0-.173-.566c.181-.116.356-.235.53-.36.027.196.045.394.053.592-.13.13-.263.255-.405.374a.12.12 0 0 0-.003-.046l-.002.006Zm.283 1.152c-.04.071-.08.136-.122.204v-.26l.172-.196c-.02.077-.033.162-.05.247v.005Zm.107-.702c-.085.108-.17.215-.26.317a6.793 6.793 0 0 0-.065-.473c.118-.099.237-.2.35-.308a6.504 6.504 0 0 1-.025.459v.005Zm.34-.504-.082.136v-.328c.05-.054.104-.108.153-.162-.017.11-.043.23-.071.349v.005Zm.144-.798c-.076.096-.158.19-.24.283a6.503 6.503 0 0 0-.063-.52c.116-.094.232-.188.343-.284-.009.161-.009.337-.04.515v.006Zm.329-.456-.063.093v-.384l.148-.145a3.72 3.72 0 0 1-.085.43v.006Z"/>
  </g>
  <defs>
    <linearGradient id="a" x1="38.487" x2="55.836" y1="37.469" y2="20.995" gradientUnits="userSpaceOnUse">
      <stop stop-color="#A5306F"/>
      <stop offset=".73" stop-color="#E7048A"/>
      <stop offset=".79" stop-color="#EC008C"/>
    </linearGradient>
    <linearGradient id="b" x1="33.59" x2="12.849" y1="37.967" y2="17.227" gradientUnits="userSpaceOnUse">
      <stop stop-color="#039447"/>
      <stop offset=".9" stop-color="#EDE80C"/>
    </linearGradient>
    <linearGradient id="c" x1="38.009" x2="54.414" y1="34.106" y2="50.509" gradientUnits="userSpaceOnUse">
      <stop offset=".01" stop-color="#2F2E7A"/>
      <stop offset=".43" stop-color="#1A68AF"/>
      <stop offset=".9" stop-color="#00AEEF"/>
    </linearGradient>
    <linearGradient id="d" x1="33.991" x2="17.583" y1="34.1" y2="50.509" gradientUnits="userSpaceOnUse">
      <stop stop-color="#F37021"/>
      <stop offset=".02" stop-color="#F37320"/>
      <stop offset=".22" stop-color="#F59815"/>
      <stop offset=".42" stop-color="#F6B50C"/>
      <stop offset=".61" stop-color="#F6CA05"/>
      <stop offset=".81" stop-color="#F7D601"/>
      <stop offset="1" stop-color="#F7DA00"/>
    </linearGradient>
  </defs>
</svg>
