<svg xmlns="http://www.w3.org/2000/svg" width="72" height="72" fill="none">
  <path fill="#fff" d="M0 0h72v72H0z"/>
  <path fill="#000" d="M52.748 20.837C48.9 17.885 43.308 16 36.232 16c-7.076 0-12.668 1.885-16.516 4.837C14.185 25.081 12 30.607 12 36c0 5.393 2.185 10.919 7.716 15.163C23.564 54.115 29.156 56 36.232 56c7.075 0 12.668-1.885 16.516-4.837 5.53-4.244 7.716-9.77 7.716-15.163 0-5.393-2.185-10.919-7.716-15.163Z"/>
  <path fill="#fff" d="M44.43 30.996c1.505 0 2.75.383 3.505 1.079 1.064.979 1.603 2.3 1.603 3.925 0 1.626-.54 2.946-1.602 3.925-.756.696-2.001 1.079-3.507 1.079-1.506 0-2.751-.383-3.506-1.079-1.063-.979-1.603-2.3-1.603-3.925 0-1.626.54-2.946 1.603-3.925.755-.696 2-1.079 3.506-1.079Zm0-5.851c-3.201 0-5.731 1.023-7.471 2.625-2.502 2.304-3.49 5.303-3.49 8.23 0 2.927.988 5.926 3.49 8.23 1.74 1.602 4.27 2.625 7.47 2.625s5.73-1.023 7.47-2.625c2.502-2.304 3.49-5.303 3.49-8.23 0-2.927-.988-5.926-3.49-8.23-1.74-1.602-4.27-2.625-7.47-2.625ZM24.663 30.996c1.506 0 2.751.383 3.507 1.079 1.063.979 1.602 2.3 1.602 3.925 0 1.626-.54 2.946-1.602 3.925-.756.696-2 1.079-3.507 1.079-1.506 0-2.75-.383-3.506-1.079-1.063-.979-1.602-2.3-1.602-3.925 0-1.626.539-2.946 1.602-3.925.755-.696 2-1.079 3.506-1.079Z"/>
</svg>
