<svg xmlns="http://www.w3.org/2000/svg" width="72" height="72" fill="none"><path fill="#fff" d="M0 0h72v72H0z"/><g opacity=".24"><path fill="#fff" d="M50.178 45.721h-5.626c-2.993 0-4.141-3.015-4.434-6.368-.157-2.25-.63-3.645-2.948-3.645h-1.282v5.04c0 1.013.225 1.306.855 1.306h1.26v3.667H26.301v-3.667h1.26c.653 0 .856-.293.856-1.306v-14.02c0-.967-.225-1.26-.856-1.26h-1.26V21.8h13.682c5.716 0 8.8 1.936 8.8 6.661 0 3.106-1.733 4.906-4.974 5.694 3.24.855 4.388 2.925 4.568 6.278.068 1.193.405 1.62 1.305 1.62h.495v3.669Z"/><path fill="#130D0F" fill-rule="evenodd" d="M47.882 34.357c1.8 1.733 2.183 4.096 2.295 5.896H52v6.189L46.442 52h-6.369c-1.598 0-2.993-.63-4.028-1.8L34.267 52H20v-6.211l2.115-2.115V31.769H20v-6.21L25.558 20h14.425c8.754 0 10.6 4.613 10.6 8.461 0 2.003-.608 3.668-1.779 4.951v.002c0 .021-.021.042-.922.943Zm-3.33 11.364h5.625v-3.668h-.495c-.9 0-1.238-.427-1.305-1.62-.18-3.353-1.328-5.423-4.568-6.278 3.24-.788 4.973-2.588 4.973-5.694 0-4.725-3.083-6.66-8.799-6.66H26.301v3.667h1.26c.63 0 .855.293.855 1.26v14.02c0 1.013-.202 1.305-.855 1.305h-1.26v3.669h11.702v-3.669h-1.26c-.63 0-.855-.292-.855-1.305v-5.04h1.282c2.318 0 2.79 1.395 2.948 3.645.293 3.353 1.44 6.368 4.433 6.368Zm-8.666-20.207h1.868c2.476 0 3.488.922 3.51 3.443 0 2.678-1.125 3.645-3.937 3.645h-1.44v-7.088Z" clip-rule="evenodd"/></g></svg>