<svg xmlns="http://www.w3.org/2000/svg" width="32" height="32" fill="none">
  <path fill="#A8A8A8" opacity=".5" fill-rule="evenodd" d="M32 5a5 5 0 0 0-5-5H5a5 5 0 0 0-5 5v22a5 5 0 0 0 5 5h22a5 5 0 0 0 5-5V5Z" clip-rule="evenodd"/>
  <path fill="#fff" d="M27.52 23.899h-4.572c-2.432 0-3.364-2.45-3.602-5.175-.128-1.828-.512-2.962-2.395-2.962h-1.042v4.096c0 .823.182 1.06.694 1.06h1.024v2.98H8.12v-2.98h1.024c.53 0 .694-.237.694-1.06V8.467c0-.786-.183-1.024-.694-1.024H8.12v-2.98h11.116c4.645 0 7.15 1.572 7.15 5.412 0 2.523-1.408 3.986-4.041 4.626 2.633.694 3.565 2.377 3.711 5.101.055.97.33 1.317 1.06 1.317h.403v2.98Z"/>
  <path fill="#130D0F" d="M27.519 19.456c-.091-1.463-.402-3.383-1.865-4.79.75-.75.75-.75.75-.769.95-1.042 1.444-2.395 1.444-4.022 0-3.127-1.5-6.875-8.612-6.875H7.516L3 7.516v5.047h1.719v9.672L3 23.954V29h11.592l1.445-1.463c.84.951 1.974 1.463 3.272 1.463h5.175L29 24.484v-5.028h-1.481Zm0 4.443h-4.571c-2.432 0-3.364-2.45-3.602-5.175-.128-1.828-.512-2.962-2.395-2.962h-1.042v4.096c0 .823.182 1.06.694 1.06h1.024v2.98H8.12v-2.98h1.023c.53 0 .695-.237.695-1.06V8.467c0-.786-.183-1.024-.695-1.024H8.12v-2.98h11.116c4.644 0 7.15 1.572 7.15 5.412 0 2.523-1.409 3.986-4.041 4.626 2.633.694 3.565 2.377 3.711 5.101.055.969.33 1.316 1.06 1.316h.403v2.98Z"/>
  <path fill="#130D0F" d="M17.425 7.48h-1.517v5.76h1.17c2.285 0 3.2-.787 3.2-2.963-.019-2.047-.841-2.797-2.853-2.797Z"/>
</svg>
