<svg xmlns="http://www.w3.org/2000/svg" width="944" height="8" fill="none"><g opacity=".64"><mask id="a" width="944" height="8" x="0" y="0" maskUnits="userSpaceOnUse" style="mask-type:luminance"><path fill="#fff" d="M0 0h944v8H0V0Z"/></mask><g fill="#A8A8A8" mask="url(#a)" opacity=".5"><path d="M485.767.414h.69l.088-.019c.507-.106.853-.178 1.471-.135 0 0 .77.1.854.119.102.021.238.01.372-.003.142-.013.283-.025.383.003h.557l.263.081c.174.054.349.109.524.162l.077-.023h.004l.148-.046c.226.103.44.233.654.362.196.119.391.237.593.334.112.053.228.068.346.082.122.015.248.03.375.092.213.104.44.21.67.317.317.148.638.298.937.448a.77.77 0 0 0 .32.07c.074.006.143.011.205.035.477.187.96.457 1.437.724.311.174.619.346.923.494.315.153.664.273.997.387.165.057.326.112.479.17l.36.035.086.042c.509.25 1.912.941 2.046.793.23.183.574.432.852.452h.032c.214.125.512.173.807.221.164.027.327.053.473.093.29.078.554.08.806.084.217.002.426.004.636.055.165.04.392.07.492-.035.268.218.767.231 1.049.14.142-.047.344-.02.568.01.275.036.581.076.842-.01.45-.15.905-.272 1.356-.391.993-.264 1.964-.522 2.808-1.072.098-.063.239-.12.389-.18.286-.113.601-.239.693-.446.025-.027.024-.041.023-.052-.001-.016-.002-.025.075-.052.249.067.449-.116.634-.286.076-.077.16-.145.252-.202.237-.13.454-.236.665-.34.268-.131.528-.258.81-.425.137-.081.266-.204.397-.329.145-.138.292-.279.456-.367.69-.362 1.415-.653 2.164-.87l.896-.21.448-.104c.372-.194 1.541-.533 1.804-.487.044.008.107-.04.151-.074.02-.015.036-.027.046-.03.169-.063 1.497-.012 1.541 0h1.836c.21.047.469.075.737.103.26.028.528.057.771.105.1.02.149 0 .199-.02.054-.022.108-.044.227-.014l1.214.487c.36.119.722.212 1.075.302.392.1.772.198 1.122.324l.622.419c.309.158.604.261.905.365.25.086.503.174.768.295.891.41 1.756 1.002 2.557 1.601l.492.14c.275.14.613.303.951.452l.131.023.263.046c.176.093.292.113.418.134.109.02.227.04.401.11l.429.177c.637.265 1.291.537 1.997.728l1.312.174.558-.035c.371.126.913.278 1.409.244 1.177-.08 1.772-.228 2.689-.661.169-.08.34-.138.506-.194.237-.08.467-.157.674-.294l.131.105.394-.14c.17-.094.377-.155.603-.223.182-.054.377-.112.577-.194.128-.053.261-.142.393-.23.17-.113.338-.226.493-.257.031.019.074-.014.124-.052.078-.059.173-.13.269-.053.197-.134.355-.286.51-.435.177-.17.35-.337.572-.47l1.869-.661c.03-.02.18-.23.098-.244h.23a1.25 1.25 0 0 0 .214-.172c.09-.082.183-.168.278-.21l.623-.14c.712-.306 1.489-.524 2.262-.74.5-.14.999-.28 1.475-.443.34-.116.84-.12 1.31-.122.417-.003.812-.006 1.051-.087l.23.105c.771-.02 1.573-.008 2.262.139h.82c.054.017.12.045.191.075.128.056.273.118.399.134.488.063.909.157 1.41.278l.361-.035c.438.188.946.45 1.451.709.322.165.643.33.943.475.164.08.316.112.477.146.144.03.296.063.473.132.709.276 1.433.652 2.121 1.01l.006.003c.156.081.311.162.464.24.101.052.201.066.3.08a.775.775 0 0 1 .323.094c1.483.905 3.513 1.777 5.213 2.332.102.033.26.03.431.029.191-.003.396-.006.553.04.173.052.379.046.582.04.189-.005.375-.01.532.03.9.234 1.719.112 2.525-.14h.886c.224-.07.453-.128.684-.171.249-.053.484-.103.66-.176l.789-.163.391-.08c.747-.362 1.422-.792 2.105-1.226.81-.516 1.628-1.037 2.584-1.455v-.07c1.062-.61 2.169-1.16 3.377-1.74.172-.082.32-.097.48-.113a2.19 2.19 0 0 0 .373-.06c1.076-.287 1.749-.446 2.918-.592.189-.024.379-.05.569-.078.891-.126 1.792-.253 2.743-.061l1.312-.07c1.077.138 2.019.265 3.081.626.659.225 1.276.661 1.803 1.045a.758.758 0 0 0 .275.112c.082.022.166.044.25.096.653.408 1.349.84 1.966 1.22l.165.103c.778.481 1.712.81 2.492 1.079.21.072.443.25.647.408.113.086.218.167.305.218l.005.002.617.173c.784.327 1.584.58 2.418.843l.632.2c.229.074.488.068.71.063.129-.004.247-.006.339.007 1.077.158 2.344.038 3.443-.209.216-.048.41-.12.6-.19.288-.105.567-.207.908-.227l.033-.105c.17.13.402.007.591-.094.059-.032.115-.061.163-.08.123-.047.245-.092.367-.137l.001-.001c.585-.216 1.158-.429 1.665-.802.363-.267.685-.397 1.058-.548.16-.064.33-.133.515-.217a8.399 8.399 0 0 0 1.247-.731c.226-.157.648-.261 1.049-.36.257-.064.505-.125.689-.197.728-.285 1.451-.5 2.19-.72.734-.218 1.483-.441 2.269-.742.266.055.876-.103 1.148-.174.034-.009.167.003.31.015.147.013.303.027.378.02.669-.06 1.404-.125 2.065.036.187-.013.373-.024.558-.035.205.036.471.048.736.06.368.015.735.031.936.113.038.015.082.037.129.06.188.091.438.212.625.114 2.98 1.391 5.923 2.466 9.01 3.593l.073.027c.256.094.475.112.684.13.167.014.328.028.496.078 1.143.346 2.54.668 3.443.488.28-.056.638-.018 1.001.02.442.048.894.096 1.229-.02l.02-.007.032-.012c.132-.05.381-.143.637-.12l.197.104c.301-.08.602-.206.894-.328.164-.069.326-.137.482-.194h.361c.327-.098.747-.236 1.114-.383.192-.077.376-.203.554-.326.146-.1.29-.2.431-.266.196-.092.351-.118.505-.144.149-.025.297-.05.478-.134.195-.09.373-.225.554-.361.261-.197.528-.398.856-.474.007-.078.003-.104.012-.122.006-.013.017-.022.041-.042l.013-.01c.199.095.597-.234.779-.384l.04-.034c.1-.081.227-.105.341-.127a.852.852 0 0 0 .184-.047l.426-.313c.111-.047.243-.037.366-.027a.719.719 0 0 0 .257-.007c.185-.06.461-.241.668-.376l.041-.027.078-.05c.158-.1.387-.137.604-.172.203-.032.396-.063.511-.142.895-.616 3.294-1.06 4.886-.87.123.015.285-.01.445-.035.161-.025.321-.05.439-.034 1.737.233 3.663.64 5.247 1.322.214.093.471.143.72.192.258.05.507.1.689.192.261.13.532.27.806.412l.004.002c.563.292 1.143.592 1.682.838.086.04.165.04.239.04.066 0 .128.001.188.03.335.155.656.364.98.576.362.236.726.475 1.118.642l.093.04c.251.107.787.337.891.342.017-.01.033-.022.05-.034l.049-.035c.261.229.695.545 1.081.522v.07c.202.1 1.141.357 1.214.348l1.278.278h.002l2.359.244 1.541-.035c.348-.163.808-.259 1.264-.354.449-.093.896-.186 1.228-.342.083-.04.176-.12.264-.196.071-.062.138-.121.195-.152l.427-.035c.283-.13.583-.268.852-.383.269-.115.532-.3.8-.489.206-.15.421-.29.643-.416.207-.112.43-.212.649-.31.302-.134.596-.265.826-.42.174-.118.353-.251.535-.386.322-.238.65-.482.973-.659.172-.094.351-.139.53-.183.189-.048.378-.095.553-.2l.043-.092.022-.047.197.035c.12-.037.266-.078.416-.12.242-.066.491-.135.633-.193 1.774-.731 4.624-1.193 6.885-.77v1.32l-1.18-.133c-.428-.132-.95-.039-1.444.05-.493.087-.959.17-1.277.02-.42.183-.959.288-1.504.393-.443.086-.891.172-1.283.303-.589.196-1.126.436-1.663.677-.306.136-.613.273-.928.402-.215.088-.406.28-.579.452a4.796 4.796 0 0 1-.142.14l-.459.174a5.376 5.376 0 0 0-.551.353 7.465 7.465 0 0 1-.466.308c-2.425 1.447-5.515 2.904-8.656 2.575-1.225-.128-2.316-.249-3.508-.626a1.98 1.98 0 0 0-.444-.074 1.464 1.464 0 0 1-.376-.065A19.95 19.95 0 0 1 685.8 4.59l-1.017-.348c-1.55-.89-3.401-1.65-5.114-2.228-.163-.054-.385-.092-.6-.129a6.32 6.32 0 0 1-.417-.08l-.394.035a18.844 18.844 0 0 1-.526-.13c-.975-.246-2.289-.578-3.31-.357h-.984c-.175.035-.36.058-.554.081-.362.044-.751.092-1.151.232-.114.04-.214.09-.314.138-.218.106-.431.21-.767.21l-.019.029c-.041.063-.089.14-.145.18-.025-.063-.023-.082-.031-.088-.009-.007-.028.002-.101-.016-.245.152-.559.21-.873.269-.326.06-.652.12-.897.288l-.23.313c-.113.079-.255.105-.397.132-.151.028-.301.056-.423.146-.553.414-1.171.734-1.793 1.056-.514.267-1.032.535-1.518.86-.241.068-.481.138-.721.207-.095.05-.2.138-.301.224a1.655 1.655 0 0 1-.257.194c-.186.099-.432.135-.69.173-.219.032-.447.065-.654.14-.18.065-.355.146-.528.227-.282.13-.565.263-.883.33-.539.115-1.189.1-1.816.085-.56-.014-1.1-.026-1.528.054l-1.345.105c-.255-.147-.642-.24-.995-.326a7.71 7.71 0 0 1-.48-.127c-.138-.043-.315-.045-.498-.047-.234-.002-.481-.004-.682-.092l-.032-.07-.066-.034-1.443-.348-.099.034a1.801 1.801 0 0 0-.491-.313c-.16-.059-.373-.087-.598-.117-.294-.04-.606-.08-.845-.196-1.79-.868-3.38-1.48-5.344-2.193-.141-.05-.282-.159-.417-.262a2.119 2.119 0 0 0-.272-.19c-.253-.137-1.858-.415-2.066-.383l-2.524-.244c-.257.052-.532.045-.798.038-.305-.008-.599-.015-.842.067a2.74 2.74 0 0 1-.633.11 3.931 3.931 0 0 0-.646.099c-.503.131-1.103.29-1.541.626l-.196-.035c-.188.072-.398.14-.612.21-.435.141-.891.29-1.224.486l-.23-.034c-.24.062-.473.176-.68.277-.11.053-.211.103-.304.14l-.306.047-.152.023c-.163.082-.311.19-.458.297-.11.08-.218.158-.33.225a.558.558 0 0 1-.238.064.625.625 0 0 0-.188.04c-.17.076-.351.152-.536.23-.323.135-.659.276-.972.432-.165.08-.317.205-.467.328a2.975 2.975 0 0 1-.353.263 7.616 7.616 0 0 1-.878.433c-.167.073-.334.147-.499.228a1.023 1.023 0 0 1-.366.078 1.045 1.045 0 0 0-.192.027c-.949.279-2.079.588-3.115.87-.344.094-.59.103-.839.112-.195.007-.391.014-.636.062l-.394-.07a5.871 5.871 0 0 0-.714-.06c-.426-.021-.906-.044-1.384-.183a61.112 61.112 0 0 0-.904-.255c-1.34-.37-2.667-.735-3.851-1.485-.136-.087-.606-.314-.753-.21-.095-.058-.18-.122-.265-.186-.152-.113-.3-.225-.49-.3a1.44 1.44 0 0 0-.217-.058 1.362 1.362 0 0 1-.373-.117c-.263-.143-.519-.333-.768-.517-.151-.112-.299-.222-.445-.318-.388-.256-.843-.49-1.247-.698l-.13-.067-.524-.175c-.147-.094-.289-.19-.43-.285l-.002-.002a11.08 11.08 0 0 0-1.176-.722c-.277-.142-1.731-.531-2.065-.383a2.755 2.755 0 0 1-.192-.094 1.905 1.905 0 0 0-.333-.15l-.569.013-1.136.023c-.917-.225-1.982-.16-2.951.208l-.983.07-.35.085h-.001c-.449.112-1.01.25-1.288.228-.092-.007-.21.047-.323.1-.132.06-.259.119-.333.074-.377.218-.786.377-1.189.534-.462.18-.916.357-1.304.615-.42.28-.855.501-1.302.73a22.84 22.84 0 0 0-.796.418.624.624 0 0 0-.155.159.896.896 0 0 1-.107.12c-.235.193-.508.308-.783.424-.25.105-.5.21-.725.376-.428.315-.932.627-1.411.905-.788.46-1.91.664-2.945.853-.509.093-.998.182-1.416.296l-.852.034c-.79.195-3.19-.037-3.771-.243a2.996 2.996 0 0 0-.639-.13c-.202-.025-.388-.049-.541-.114l-.713-.307c-.385-.166-.774-.334-1.156-.493-.053-.022-.111-.052-.174-.084-.192-.1-.418-.216-.613-.16-.019-.071-.018-.096-.029-.108-.011-.012-.035-.011-.102-.031-.355-.097-.812-.38-1.214-.63-.15-.095-.304-.187-.458-.275-.237-.132-.486-.2-.729-.265a4.024 4.024 0 0 1-.485-.153 3.115 3.115 0 0 1-.461-.257c-.31-.195-.637-.4-1.08-.404l-.065-.209c-.179-.008-.494-.151-.731-.258l-.043-.02-.078-.035a5.594 5.594 0 0 0-.672-.234c-.21-.063-.422-.126-.64-.219-.124-.052-.248-.16-.366-.265-.101-.088-.198-.173-.29-.221a6.039 6.039 0 0 0-.831-.33l-.152-.054-.296.035c-.096.002-.3-.076-.438-.13a2.75 2.75 0 0 0-.119-.044c-.271-.08-.565-.106-.873-.133a6.37 6.37 0 0 1-.832-.11 8.373 8.373 0 0 0-.935-.126 11.16 11.16 0 0 1-.704-.083l-.591.105c-.941-.185-2.434-.03-3.279.208-.436.123-.892.294-1.329.457-.339.127-.667.25-.966.343-.14.044-.266.069-.389.093-.174.034-.341.066-.529.151-.251.114-.479.311-.704.505-.19.165-.378.328-.575.435-.233.127-.462.135-.702.144-.232.009-.474.018-.74.134-.24.105-.446.309-.644.508a3.26 3.26 0 0 1-.406.362c-.158.111-.389.18-.613.246-.143.043-.284.085-.403.137l-.127.056-.242.108c-.726.324-1.506.672-2.287.88-.402.107-.78.268-1.16.43-.789.337-1.589.678-2.643.545l-.427.07c-.135-.022-.292-.044-.461-.068-.512-.072-1.135-.16-1.604-.28l-.46.034a13.273 13.273 0 0 0-.391-.065c-.396-.063-.857-.136-1.116-.248-.69-.297-1.421-.541-2.134-.78-.689-.23-1.361-.455-1.965-.717-.425-.184-.793-.486-1.158-.786-.343-.283-.685-.564-1.072-.745a11.655 11.655 0 0 0-1.11-.43c-.244-.082-.486-.17-.726-.266a5.022 5.022 0 0 1-.705-.388c-.205-.126-.409-.252-.607-.343-.287-.132-.654-.2-.994-.265-.288-.054-.559-.105-.743-.187l-.223-.1c-.264-.12-.529-.237-.794-.353h-.394a10.652 10.652 0 0 0-.913-.128c-.227-.025-.443-.05-.628-.08-.12-.021-.249 0-.387.021-.172.027-.359.056-.563.013-.461-.098-.911-.096-1.279 0-.072.019-.16-.003-.26-.028a.945.945 0 0 0-.363-.041c-1.303.184-3.584.65-4.984 1.357-.24.12-.471.282-.701.442-.204.142-.406.284-.611.394-.001.078.016.084.016.09 0 .006-.01.01-.048.048-.177-.076-.46.144-.685.32a2.157 2.157 0 0 1-.233.168l-.452.247c-.608.332-1.242.678-1.876 1.075a.68.68 0 0 0-.153.163c-.048.062-.094.122-.142.15-.073.044-.145.047-.215.05a.377.377 0 0 0-.212.055c-1.046.727-2.774 1.061-4.289 1.355-.309.06-.608.117-.892.176l-.295-.104a.676.676 0 0 0-.283.03c-.104.024-.216.05-.339.04a7.669 7.669 0 0 1-.877-.155c-.145-.032-.29-.062-.435-.09h-1.082c-1.698-.312-2.838-.838-4.262-1.496a9.609 9.609 0 0 0-.957-.365c-.236-.081-.473-.162-.716-.261l-.622-.174c-.52-.294-1.071-.537-1.622-.782a28.676 28.676 0 0 1-1.1-.506.856.856 0 0 0-.316-.068c-.078-.007-.151-.013-.209-.036l-.197-.21c-.335-.178-.676-.274-1.025-.372-.308-.087-.623-.175-.942-.323a4.472 4.472 0 0 1-.472-.277 4.484 4.484 0 0 0-.479-.28c-.48-.222-1.504-.408-1.935-.208-.176-.08-.625-.124-1.149-.14 0 0-1.891.121-2.249.244-.169.058-.364.05-.566.042-.184-.007-.371-.015-.548.028-.305.072-.643.13-.987.189-.634.109-1.29.22-1.801.437-.473.2-1.001.528-1.377.835-.074.06-.239.099-.402.137-.137.032-.273.063-.352.107-.766.425-1.6.82-2.426 1.183l-.28.122c-.504.22-1.006.438-1.491.713-.036.021-.1.069-.173.122-.153.115-.345.258-.384.227a.22.22 0 0 0-.053.108.23.23 0 0 1-.046.1c-.232.24-.569.377-.902.511a11.64 11.64 0 0 0-.279.116c-.137.06-.28.127-.43.197-.854.398-1.881.876-2.914.708-.185-.03-.33.008-.478.048-.182.048-.367.097-.636.021-.331-.094-.72-.151-1.136-.213a15.254 15.254 0 0 1-1.16-.204h-.688c-.325-.1-.654-.193-.979-.287-.724-.208-1.433-.411-2.071-.653a3.269 3.269 0 0 0-.434-.122c-.217-.05-.421-.096-.614-.225a35.53 35.53 0 0 1-1.172-.834l-.002-.001c-.337-.25-.679-.494-1.024-.732-.262-.178-.576-.31-.89-.444-.325-.137-.65-.275-.913-.461-.495-.35-1.125-.659-1.703-.942-.244-.12-.48-.234-.691-.346-.217-.115-.456-.152-.694-.188-.186-.03-.374-.058-.551-.125-.917-.345-2.38-.881-3.214-.627l-.721-.034c-.376.096-.815.168-1.255.24-.393.065-.787.13-1.139.212l-.721.035c-.574.209-1.165.362-1.756.515-.727.189-1.454.377-2.147.668-.727.307-1.392.75-2.049 1.188-.504.336-1.004.669-1.524.935-1.061.543-2.226.943-3.273 1.302l-.465.16c-.09.031-.224.039-.368.047a2.214 2.214 0 0 0-.452.057c-.619.177-1.391.38-1.934.348l-.491.14c-.134.022-.272.026-.408.03-.153.005-.305.01-.445.04-.207.043-.449.006-.689-.031-.218-.034-.435-.068-.623-.04a3.14 3.14 0 0 0-.084.016c-.158.03-.441.082-.539.054-.343-.098-.674-.15-1.016-.205-.253-.04-.512-.081-.787-.143-.21-.047-.578-.11-.689 0-.346-.216-.804-.323-1.239-.424-.301-.07-.592-.137-.826-.237a.624.624 0 0 0-.241-.035.733.733 0 0 1-.35-.07l-.866-.443c-1.132-.579-2.311-1.18-3.364-1.819-.17-.103-.687-.29-.82-.243-.318-.134-.639-.26-.964-.377-.475-.176-.946-.35-1.364-.563a1.392 1.392 0 0 0-.383-.103c-.11-.02-.211-.037-.272-.071-.822-.455-1.452-.544-2.208-.65a15.586 15.586 0 0 1-1.104-.185c-.454-.096-1.502-.256-1.77-.21-1.34.238-2.785.516-4.099 1.045-.43.173-.99.403-1.41.661a1.135 1.135 0 0 0-.211.189c-.088.091-.178.185-.28.229-.09.038-.179.03-.278.022a.796.796 0 0 0-.411.047c-.431.188-.852.517-1.241.82-.185.145-.362.283-.529.399-.296.203-.611.346-.928.492-.279.12-.55.258-.812.412-.117.074-.224.19-.329.307-.115.127-.229.253-.358.32-.624.324-1.695.583-2.517.78l-.369.09c-.12-.012-.24-.022-.36-.035-.368-.018-.826.126-1.181.238l-.131.04-.525-.069-.651.12-.3.054c-.506.11-1.156-.041-1.693-.167-.12-.028-.233-.054-.339-.077-.153-.031-.476-.092-.656-.07l-.13.07a.395.395 0 0 1-.125-.074.579.579 0 0 0-.172-.1 5.634 5.634 0 0 0-.807-.144c-.395-.05-.78-.099-1.225-.308a.522.522 0 0 0-.226-.025.74.74 0 0 1-.331-.045c-.2-.097-.39-.214-.567-.35a4.51 4.51 0 0 0-.418-.275.68.68 0 0 0-.268-.072.507.507 0 0 1-.157-.033 15.12 15.12 0 0 1-1.411-.836l-.043.012-.088.023-.597-.392c-.814-.537-1.652-1.09-2.517-1.557-.242-.13-.525-.187-.81-.243-.193-.04-.387-.078-.568-.14a29.298 29.298 0 0 1-1.265-.483h-.001c-.188-.076-.37-.148-.537-.213-.355-.137-.758-.187-1.155-.236a9.32 9.32 0 0 1-.55-.077l-.328.035c-.058-.022-.122-.057-.188-.091-.094-.05-.189-.1-.271-.118-.331-.07-.676-.063-1.01-.057-.315.005-.62.01-.892-.048l-2.524.175-.755.243c-.523-.131-1.063.09-1.604.313-.396.163-.792.326-1.182.35-.663.038-2.44 1.104-3.017 1.495a.994.994 0 0 1-.342.13c-.106.027-.214.053-.313.114-.436.264-.92.519-1.413.778-.873.46-1.769.931-2.457 1.484l-.263.046-.131.023-.014.007c-.39.178-.759.347-1.231.515-.242.087-.526.203-.802.316a26.29 26.29 0 0 1-.511.206l-1.573.14c-.334.077-.811.147-1.18.07-.095-.02-.194-.044-.298-.068-.441-.103-.945-.22-1.375-.142-.01-.111-.019-.11-.162-.106h-.024l-.043.002c-.278-.135-.678-.212-1.065-.287a9.622 9.622 0 0 1-.607-.13c-.755-.202-1.481-.564-2.154-.9l-.01-.005a2.877 2.877 0 0 0-.374-.14c-.092-.03-.166-.054-.185-.069-.344-.324-.85-.609-1.216-.814l-.16-.09c-.173-.06-.349-.118-.523-.177l-.1-.033c-.078-.047-.151-.134-.225-.222a1.086 1.086 0 0 0-.234-.23l-.262-.035c-.67-.32-1.348-.621-2.033-.905a.677.677 0 0 0-.22-.025.956.956 0 0 1-.337-.045c-.296-.113-.596-.203-.879-.289-.392-.118-.751-.226-1.023-.372l-.328-.035-.84-.281h-.002l-.404-.136a1 1 0 0 0-.324-.028.412.412 0 0 1-.135-.007c-.02-.02-.021-.033-.022-.043-.001-.016-.002-.028-.076-.062-.427-.268-.92-.275-1.382-.282-.203-.003-.402-.005-.586-.03a2.225 2.225 0 0 1-.203-.044c-.149-.036-.317-.076-.451-.061a13.65 13.65 0 0 0-.788.174c-1.396-.226-3.378.389-4.657.835-.192.067-.457.086-.727.105a4.6 4.6 0 0 0-.616.069c-.008.063.01.067.011.07 0 .004-.009.008-.044.034-.26-.096-.92.278-1.116.418-.215.155-1.374.878-1.54.87-.073-.003-.151.055-.232.114-.117.086-.24.176-.359.095-.122.074-.238.163-.355.251-.187.142-.374.286-.596.375-.384.156-.587.302-.885.592-.103.1-.494.273-.838.425-.213.094-.408.18-.506.236-.211.122-.468.146-.744.171-.245.023-.506.047-.764.143-.275.102-.911.358-1.181.522h-.295c-.155.036-.291.06-.436.085-.176.031-.366.064-.614.123-.703.17-2.008.185-2.754.07-.221-.034-.406.014-.567.056a1.02 1.02 0 0 1-.285.048c-.07-.002-.986-.035-1.082-.07l-.041-.042-.122-.131a3.104 3.104 0 0 0-.667-.253l-.088-.026c-.098.013-.197.024-.295.035a7.466 7.466 0 0 0-.8-.29 5.826 5.826 0 0 1-.642-.232l-.46-.104c-.096-.055-.197-.153-.3-.252a1.677 1.677 0 0 0-.324-.27c-.237-.133-.505-.205-.76-.273a3.492 3.492 0 0 1-.55-.18l-.003-.005-.062-.134-1.313-.452c-.089-.066-.158-.138-.225-.207a1.078 1.078 0 0 0-.299-.246c-.155-.08-.286-.117-.412-.153a1.696 1.696 0 0 1-.474-.195c-.161-.1-.308-.264-.451-.423-.102-.112-.201-.223-.303-.308-.277-.232-.617-.301-1.001-.38a7.536 7.536 0 0 1-.473-.107 2.376 2.376 0 0 1-.36-.142c-.221-.102-.448-.205-.658-.171a2.21 2.21 0 0 0-.034-.139.499.499 0 0 1-.123-.03c-.037-.013-.06-.021-.073-.005l-.034.027c-.021.017-.025.02-.096.043-.055-.19-.214-.213-.366-.235a.773.773 0 0 1-.192-.044c-.625-.275-1.085-.397-1.835-.522-.792-.132-3.036-.195-3.871.174-.034.015-.164 0-.318-.016-.205-.022-.449-.05-.566-.019l-.229.105-.229.104h-.46c-.142.04-.313.076-.497.115-.256.055-.539.116-.815.198-.467.14-.867.36-1.265.58-.361.2-.722.397-1.128.534l-.291.097c-1.956.657-3.725 1.25-5.349 2.235-.125.076-.326.138-.525.2a2.932 2.932 0 0 0-.491.183c-.19.103-.394.223-.604.346-.476.28-.979.575-1.396.732-.08.03-.195.027-.31.023a1.07 1.07 0 0 0-.281.012c-.423.1-.85.184-1.28.251l-.36.062c-.276.05-.931-.1-1.379-.2a8.846 8.846 0 0 0-.358-.078c-.283-.05-.65-.059-1.027-.068-.509-.013-1.038-.027-1.4-.14-.414-.131-.656-.207-1.02-.32l-.094-.029h-.361c-.709-.245-1.517-.634-2.164-.974-.236-.125-.503-.213-.755-.297-.216-.072-.423-.14-.589-.225-.119-.061-.229-.17-.341-.281-.147-.146-.299-.295-.479-.346l-.066.035c-.057-.194-.272-.273-.474-.346-.089-.033-.177-.065-.247-.106a5.489 5.489 0 0 1-.234-.152c-.158-.105-.341-.228-.488-.3a.458.458 0 0 0-.193-.03c-.034 0-.061 0-.068-.006a2.246 2.246 0 0 1-.173-.143c-.121-.106-.251-.22-.386-.274a1.402 1.402 0 0 0-.235-.058c-.115-.022-.233-.046-.288-.082-.035-.022-.069-.046-.104-.07-.162-.112-.328-.227-.585-.243-.019-.223-.465-.368-.862-.498-.207-.067-.401-.13-.516-.198-.659-.392-1.432-.437-2.277-.487a12.68 12.68 0 0 1-1.427-.14c-.415-.07-1.083-.13-1.509-.034l-1.181.035c-.178.044-.397.073-.627.104-.445.059-.937.125-1.274.313-.128.072-.262.156-.398.24-.244.152-.496.31-.749.422-.181.08-.35.113-.515.147-.156.031-.31.062-.469.131-.513.222-1.06.513-1.577.788-.213.114-.421.224-.62.326l-.361.07a15.16 15.16 0 0 0-1.148.75c-.506.353-1.009.704-1.54.955-1.131.535-2.336.87-3.481 1.188l-.356.1c-.824.23-1.758.23-2.525.139a1.553 1.553 0 0 0-.415.035c-.177.03-.362.062-.536.034a16.18 16.18 0 0 0-.878-.108c-.512-.054-1.052-.11-1.58-.24a12.003 12.003 0 0 0-.291-.065c-.329-.071-.714-.155-.955-.283h-.46a3.01 3.01 0 0 1-.27-.126c-.301-.15-.662-.332-.942-.187l.021-.116.011-.058c-.488-.051-1.205-.464-1.812-.813a10.2 10.2 0 0 0-.745-.405 22.184 22.184 0 0 0-1.245-.512c-.669-.258-1.312-.507-2.002-.915-.18-.107-.358-.217-.537-.328-.62-.386-1.252-.779-2.02-1.03l-.295.035c-.435-.224-1.337-.383-1.986-.498-.2-.035-.375-.066-.506-.093-.387-.082-.849-.042-1.181.035-.083.019-1.325-.154-1.508-.21-.428-.131-.95-.038-1.444.05-.493.087-.959.17-1.277.02-.42.184-.959.288-1.504.393-.443.086-.891.173-1.283.303-.588.196-1.126.437-1.663.677-.307.137-.612.274-.927.402-.216.088-.407.28-.58.453-.049.048-.096.096-.142.139l-.459.174c-.185.098-.365.224-.551.353-.15.105-.303.212-.465.308-2.426 1.447-5.516 2.904-8.657 2.576-1.225-.129-2.316-.25-3.508-.627a2.01 2.01 0 0 0-.444-.074c-.135-.012-.262-.023-.376-.065-1.38-.514-2.7-1.18-3.934-1.984l-1.017-.348c-1.55-.89-3.401-1.649-5.114-2.227-.163-.055-.385-.093-.599-.13a6.247 6.247 0 0 1-.418-.08l-.394.036c-.159-.037-.336-.082-.526-.13-.975-.247-2.289-.579-3.31-.358h-.983a7.4 7.4 0 0 1-.554.082c-.363.044-.752.091-1.152.232-.114.04-.214.089-.313.137-.219.107-.432.21-.768.21l-.019.029a.69.69 0 0 1-.145.18c-.025-.062-.023-.081-.031-.087-.009-.007-.028 0-.101-.017-.245.153-.559.21-.872.269-.327.06-.653.121-.898.288l-.23.313c-.113.08-.255.106-.397.132-.151.028-.301.056-.423.147-.553.414-1.171.734-1.793 1.056-.515.266-1.032.534-1.518.859-.241.068-.481.138-.721.208-.095.049-.2.138-.301.223a1.624 1.624 0 0 1-.257.194c-.186.1-.432.135-.689.173-.22.032-.448.066-.655.14a6.82 6.82 0 0 0-.528.227c-.282.131-.565.263-.883.33-.538.115-1.189.1-1.816.085-.56-.013-1.1-.026-1.528.055l-1.344.105c-.256-.148-.643-.241-.996-.327a7.7 7.7 0 0 1-.48-.126c-.138-.044-.315-.046-.498-.048-.234-.002-.481-.004-.682-.092l-.032-.07-.066-.034-1.443-.348-.099.035a1.803 1.803 0 0 0-.491-.314c-.16-.058-.373-.087-.598-.117-.294-.039-.606-.08-.845-.196-1.79-.868-3.38-1.48-5.344-2.192-.141-.051-.282-.16-.417-.263a2.119 2.119 0 0 0-.272-.19c-.253-.137-1.858-.414-2.066-.383l-2.524-.243c-.257.052-.532.044-.798.038-.305-.008-.599-.016-.842.066-.203.07-.411.089-.633.11a3.931 3.931 0 0 0-.646.099c-.503.131-1.103.29-1.541.626l-.196-.034c-.188.071-.398.14-.611.209-.436.141-.892.29-1.225.487l-.23-.035c-.24.062-.473.176-.68.277-.11.053-.211.103-.304.14-.101.017-.204.032-.306.047l-.152.023c-.163.082-.311.19-.458.297-.11.08-.218.159-.33.225a.558.558 0 0 1-.238.064.625.625 0 0 0-.188.04c-.17.077-.351.153-.536.23-.323.136-.658.277-.972.432-.165.081-.317.206-.467.328a2.977 2.977 0 0 1-.353.264 7.61 7.61 0 0 1-.878.432c-.168.074-.334.147-.499.229-.113.056-.248.067-.366.077-.073.006-.14.012-.192.027-.949.28-2.079.588-3.115.87a3.31 3.31 0 0 1-.839.112c-.195.007-.391.014-.636.062l-.394-.07a6.006 6.006 0 0 0-.713-.06c-.427-.02-.907-.044-1.385-.183-.301-.088-.604-.171-.904-.254-1.34-.37-2.666-.736-3.851-1.486-.136-.087-.605-.314-.753-.209a3.56 3.56 0 0 1-.265-.187 2.119 2.119 0 0 0-.49-.3 1.346 1.346 0 0 0-.217-.057c-.124-.027-.263-.057-.373-.117-.263-.143-.519-.333-.768-.517-.151-.112-.299-.222-.445-.318-.388-.257-.842-.49-1.247-.699l-.13-.067-.524-.174c-.147-.095-.29-.192-.432-.287a10.908 10.908 0 0 0-1.176-.722c-.277-.143-1.731-.532-2.065-.383a2.763 2.763 0 0 1-.192-.095c-.112-.058-.233-.122-.333-.149l-.568.012-1.137.023c-.917-.224-1.982-.16-2.95.209l-.984.07c-.102.023-.221.053-.351.085-.45.111-1.009.25-1.288.228-.092-.008-.209.046-.323.098-.131.061-.259.12-.333.076-.377.217-.786.377-1.189.534-.462.18-.916.356-1.304.614-.42.28-.855.502-1.303.73a23.12 23.12 0 0 0-.795.419c-.054.03-.105.095-.155.158a.895.895 0 0 1-.107.12c-.234.194-.508.309-.783.424-.249.105-.5.21-.725.376a16.12 16.12 0 0 1-1.411.905c-.788.46-1.91.664-2.945.853-.51.093-.998.182-1.416.296l-.852.035c-.79.195-3.19-.037-3.77-.244a3.001 3.001 0 0 0-.64-.13c-.201-.025-.389-.049-.54-.114-.234-.099-.474-.203-.715-.307a93.41 93.41 0 0 0-1.155-.493c-.053-.022-.111-.052-.173-.084-.192-.099-.419-.216-.614-.16-.019-.07-.018-.096-.03-.108-.01-.012-.034-.01-.101-.03-.355-.097-.811-.38-1.214-.63-.166-.103-.322-.2-.458-.276-.237-.131-.486-.199-.729-.264a4.016 4.016 0 0 1-.484-.153 3.143 3.143 0 0 1-.462-.257c-.31-.195-.638-.402-1.08-.405l-.065-.208c-.18-.009-.495-.152-.731-.26l-.121-.054c-.227-.1-.448-.166-.672-.233a6.072 6.072 0 0 1-.64-.22c-.124-.052-.248-.16-.367-.265a1.582 1.582 0 0 0-.289-.22 6.287 6.287 0 0 0-.83-.331l-.154-.053-.295.035c-.096.002-.3-.077-.438-.13-.04-.016-.08-.03-.12-.044-.27-.082-.564-.107-.872-.134a6.234 6.234 0 0 1-.832-.11 8.206 8.206 0 0 0-.935-.126c-.24-.024-.482-.048-.704-.083l-.59.105c-.942-.185-2.435-.03-3.28.208-.436.123-.891.294-1.329.458-.339.127-.667.25-.966.343-.14.044-.266.068-.389.092-.182.028-.36.079-.529.151-.25.114-.479.311-.703.506-.191.164-.379.327-.576.434-.233.127-.462.136-.703.145-.231.008-.474.017-.74.134-.24.104-.444.308-.644.507-.124.132-.26.253-.404.363-.159.11-.39.179-.614.246-.143.043-.285.085-.403.136l-.37.165c-.725.324-1.505.672-2.286.88-.402.107-.78.268-1.16.43-.79.336-1.589.677-2.643.544l-.427.07a25.863 25.863 0 0 0-.46-.067c-.513-.073-1.136-.161-1.605-.281l-.46.034c-.113-.021-.248-.042-.391-.065-.396-.063-.857-.136-1.117-.248-.69-.297-1.42-.541-2.133-.78-.688-.23-1.36-.455-1.965-.716-.426-.184-.793-.486-1.158-.787-.343-.283-.685-.564-1.072-.745a11.73 11.73 0 0 0-1.11-.429c-.252-.088-.498-.173-.726-.267a5.05 5.05 0 0 1-.705-.387 5.863 5.863 0 0 0-.606-.344c-.288-.132-.655-.2-.994-.264-.29-.055-.56-.105-.744-.188l-.22-.098a84.232 84.232 0 0 0-.797-.355h-.393c-.287-.058-.61-.094-.914-.128-.226-.025-.443-.049-.627-.08-.12-.02-.25 0-.388.021-.172.027-.358.057-.563.013-.462-.098-.911-.095-1.279 0-.072.02-.16-.003-.26-.028a.946.946 0 0 0-.363-.041c-1.303.185-3.584.651-4.984 1.357-.24.121-.472.283-.702.443a6.42 6.42 0 0 1-.61.393c-.001.078.016.085.016.091 0 .005-.01.01-.048.048-.177-.076-.46.144-.685.32-.09.07-.172.133-.233.167l-.451.247c-.61.332-1.243.678-1.877 1.075a.694.694 0 0 0-.153.163c-.048.062-.094.122-.142.15a.422.422 0 0 1-.215.051c-.073.004-.143.007-.212.054-1.046.728-2.773 1.062-4.29 1.355-.308.06-.607.117-.89.176l-.295-.104a.703.703 0 0 0-.284.03c-.104.024-.216.051-.34.04a7.56 7.56 0 0 1-.875-.154c-.145-.032-.29-.062-.436-.09h-1.082c-1.698-.312-2.838-.838-4.262-1.497-.325-.15-.64-.257-.956-.365-.237-.08-.474-.162-.717-.261l-.623-.174c-.52-.293-1.07-.537-1.621-.781-.369-.164-.738-.328-1.1-.507a.855.855 0 0 0-.316-.068.717.717 0 0 1-.209-.036l-.196-.209c-.336-.179-.677-.275-1.026-.373a6.027 6.027 0 0 1-.942-.323 4.313 4.313 0 0 1-.472-.277c-.165-.105-.33-.211-.479-.28-.48-.222-1.504-.407-1.934-.208-.177-.08-.626-.124-1.15-.14V.303c.289.02.577.053.855.112.102.022.237.01.371-.002.142-.013.284-.026.383.002h.557l.263.081.524.163.077-.023.153-.047c.225.104.44.234.653.363.196.119.391.237.593.333.112.054.227.068.345.082.124.015.25.03.376.092.213.104.44.21.67.318.317.147.638.298.937.448.11.055.22.063.32.07.074.006.143.01.204.034.478.187.96.457 1.438.724.31.174.62.346.923.494.315.153.663.273.997.387.165.057.327.113.479.17l.36.035.087.042c.508.25 1.911.941 2.045.793.23.184.574.433.852.453h.033c.213.124.512.173.806.22.164.027.326.054.473.093.29.078.554.081.806.084.217.002.426.005.636.055.165.04.392.07.492-.035.268.218.767.232 1.05.14.14-.047.344-.02.567.01.275.036.581.077.842-.01.45-.15.905-.271 1.356-.39.993-.265 1.964-.523 2.808-1.072.098-.064.24-.12.39-.18.285-.114.6-.24.692-.447.025-.026.024-.04.023-.052-.001-.016-.002-.024.076-.052.248.068.448-.116.632-.285.087-.08.17-.157.253-.202.238-.13.454-.237.666-.34.267-.132.527-.259.81-.426a2.39 2.39 0 0 0 .396-.329c.145-.138.293-.278.456-.367.69-.362 1.416-.654 2.165-.872l.897-.209.447-.104c.371-.195 1.54-.533 1.804-.488.044.008.107-.04.151-.073.02-.015.036-.028.046-.031.17-.063 1.496-.012 1.54 0h1.837c.21.047.469.075.737.104.26.028.529.056.771.105.1.02.15 0 .199-.02a.301.301 0 0 1 .227-.015l1.214.487c.36.12.722.212 1.075.302.392.1.772.198 1.121.325l.623.418c.308.159.605.261.905.365.25.087.503.174.768.296.892.41 1.756 1.001 2.557 1.6l.492.14c.275.14.613.304.95.452l.132.024.262.046c.177.092.292.112.419.134.11.019.227.039.401.11.142.057.285.117.429.176.637.265 1.29.537 1.997.728l1.312.174.557-.034c.372.126.915.277 1.41.243 1.176-.08 1.772-.228 2.689-.661.169-.08.34-.137.506-.193.237-.08.467-.158.674-.294l.131.104.394-.14c.17-.094.377-.155.603-.222.182-.055.377-.113.577-.195.129-.053.262-.141.393-.23.17-.113.338-.225.493-.257.03.019.074-.014.125-.052.077-.058.172-.13.268-.052.197-.134.355-.286.51-.436.177-.17.35-.336.572-.47l1.87-.66c.029-.022.18-.231.097-.244h.23c.069-.04.14-.105.214-.173a1.19 1.19 0 0 1 .278-.21l.623-.14c.712-.306 1.49-.523 2.262-.74.5-.14.999-.28 1.476-.443.34-.116.839-.119 1.309-.122.417-.003.812-.005 1.052-.086l.229.104c.77-.02 1.574-.008 2.262.14h.82c.055.016.12.044.191.075.128.055.273.117.4.133.488.063.908.158 1.41.278l.36-.034c.438.187.947.449 1.451.708.322.166.643.33.942.475.166.08.317.112.478.146.144.03.296.063.473.132.709.276 1.433.653 2.121 1.01l.47.243c.1.052.2.066.3.08a.79.79 0 0 1 .323.094c1.483.905 3.513 1.778 5.213 2.332.102.033.26.031.431.029.19-.003.396-.005.553.04.174.052.379.046.582.04.189-.005.375-.01.532.03.9.234 1.719.112 2.525-.139h.886c.216-.073.455-.124.684-.172.249-.053.484-.102.66-.176l.787-.162.393-.082c.747-.36 1.423-.79 2.105-1.225.81-.515 1.629-1.036 2.584-1.454v-.07c1.062-.611 2.169-1.16 3.377-1.74.172-.082.32-.097.48-.113.114-.012.234-.024.373-.061 1.076-.286 1.749-.446 2.918-.592.189-.023.379-.05.569-.077.891-.126 1.792-.254 2.743-.062l1.312-.07c1.077.138 2.019.266 3.081.627.659.224 1.276.66 1.803 1.044a.76.76 0 0 0 .275.113.824.824 0 0 1 .25.096c.666.416 1.378.856 2.002 1.242l.129.08c.778.481 1.712.81 2.492 1.08.21.071.443.25.647.407.113.087.218.167.305.219l.005.001.617.173c.784.328 1.584.58 2.418.843l.632.2c.229.075.488.068.71.063.129-.003.247-.006.339.007 1.077.158 2.344.038 3.443-.208.216-.049.41-.12.6-.19.288-.105.567-.208.908-.228l.033-.105c.17.13.402.007.591-.093.059-.032.115-.062.163-.08.123-.048.246-.093.368-.139.584-.216 1.158-.429 1.665-.801.363-.268.685-.398 1.058-.548.16-.065.33-.133.515-.218a8.395 8.395 0 0 0 1.247-.73c.226-.158.648-.262 1.049-.361.257-.064.505-.125.688-.197.729-.285 1.452-.5 2.191-.72.734-.218 1.483-.44 2.269-.741.266.055.876-.103 1.148-.174.035-.01.167.002.311.015.146.013.302.026.377.02.669-.06 1.404-.126 2.065.035l.558-.035c.205.036.471.048.736.06.368.016.735.032.936.113.038.016.082.037.129.06.189.092.438.213.625.114 2.98 1.392 5.923 2.466 9.01 3.593l.073.027c.256.094.475.112.684.13.167.014.328.028.497.079 1.142.346 2.539.667 3.442.487.28-.056.638-.018 1.001.021.442.047.894.095 1.229-.02l.052-.02c.132-.049.381-.142.637-.12l.197.104c.301-.079.603-.205.894-.328.165-.069.326-.137.482-.194h.361c.327-.097.747-.236 1.114-.383.193-.077.376-.203.554-.326.146-.1.29-.199.431-.265.196-.093.351-.119.505-.144.149-.025.297-.05.478-.135.197-.1.382-.221.554-.36.261-.198.528-.399.856-.475.007-.078.003-.103.012-.122a.15.15 0 0 1 .041-.042l.013-.01c.2.096.597-.234.778-.384l.041-.034c.1-.081.228-.105.342-.126.067-.013.131-.025.183-.048l.426-.313c.111-.047.243-.036.366-.027a.719.719 0 0 0 .257-.007c.185-.06.461-.24.668-.375l.119-.078c.158-.1.387-.137.604-.171.203-.033.396-.063.511-.142.895-.617 3.295-1.06 4.886-.87a1.85 1.85 0 0 0 .445-.036c.161-.025.321-.05.439-.034 1.737.234 3.663.64 5.247 1.322.214.093.471.143.72.192.258.05.507.1.689.192.262.131.534.272.809.414.564.292 1.144.592 1.683.838.086.04.165.04.239.04a.443.443 0 0 1 .188.03c.336.155.656.365.98.576.362.237.726.475 1.118.642l.093.04c.251.107.787.337.891.343l.066-.046.033-.024c.261.23.695.545 1.081.522v.07c.202.101 1.141.357 1.214.348l1.278.278h.002l2.359.245 1.541-.036c.348-.163.808-.259 1.264-.353.449-.094.896-.187 1.228-.343.083-.039.176-.12.264-.196.071-.062.139-.12.195-.152l.427-.035c.283-.13.583-.267.852-.383.269-.115.532-.3.8-.488.206-.151.421-.29.643-.417.212-.112.429-.215.649-.31.302-.134.596-.265.826-.42.174-.118.354-.251.536-.386.321-.238.649-.481.973-.658.171-.094.35-.14.529-.184.189-.047.378-.095.553-.2l.042-.09.023-.049.197.035c.12-.037.267-.078.416-.12.243-.066.491-.135.633-.193 1.774-.73 4.624-1.118 6.885-.696.178.033.34.002.511-.03.221-.043.458-.088.769-.005.439.119.958.21 1.48.302.548.097 1.101.195 1.569.325l.032-.104c.307.196.758.372 1.22.552.265.103.534.207.781.318.304.136.655.369.99.59.168.112.333.221.485.314.342-.009.787.263 1.195.513.207.126.405.247.576.323.082.037.189.02.273.006.055-.009.099-.016.12-.006.12.057.263.167.407.276.121.093.241.185.348.246.214.123.46.217.681.302.169.065.322.124.433.185l.099-.07a8.982 8.982 0 0 0 1.967.975c.113.037.291.04.453.04.143.002.273.004.334.03 1.262.53 3.128.681 4.197.592l.338.059.056.01c.482.013 1.128-.065 1.442-.244.222.046.776-.012.985-.07 1.533-.432 3.131-1.06 4.163-1.88.153-.12.328-.187.505-.253.164-.062.329-.125.478-.233.156-.112.326-.22.499-.328.284-.18.575-.362.813-.577.051-.045.103-.1.158-.157.14-.144.294-.304.465-.365.204-.073.345-.008.478.052.119.055.231.105.374.052l.015-.008.805-.409.885-.279c.183-.081.369-.2.557-.32.228-.144.458-.29.69-.376.449-.166.924-.2 1.406-.234.381-.027.768-.054 1.151-.149 1.134-.28 5.141.13 6.46.661.322.404 1.139.73 1.893 1.031.43.172.839.336 1.124.5.472.275 1.017.621 1.553.961.394.25.783.497 1.134.71.203.123 1.358.583 1.412.522.703.575 2.018.866 3.097 1.104.177.04.348.077.508.115.235.054.453.055.663.056.2.001.392.002.584.049.77.185 1.673.385 2.393.243.162-.032.31-.033.447-.034.305-.002.547-.003.733-.35h.066l.006.014c.019.05.03.077.049.092.019.018.05.022.113.03l.029.005c.249-.059.498-.116.748-.174l.006-.001c.32-.15.708-.397 1.001-.583l.179-.112c.192-.12.398-.174.604-.229.183-.047.366-.096.544-.19.49-.26.965-.495 1.443-.73.474-.235.95-.47 1.442-.732l.005.002.127.033c.111-.034.214-.093.313-.15.181-.103.349-.2.54-.128.309-.118.622-.247.932-.375.46-.189.917-.377 1.362-.53.271-.093.554-.242.835-.39a7.06 7.06 0 0 1 .706-.34c.35-.138 1.859-.572 2-.488.203-.104.657-.31.787-.348.023-.007.05.007.083.024.039.02.088.045.147.045h.017c.326.005.896.014 1.262-.07.314-.07 1.039-.175 1.343-.104l.874-.103.011-.001 1.346.07c.752.144 1.589.354 2.262.626l.027.006.727.168.526.27.425.218c.197.076.415.1.628.124.361.04.708.077.914.363v.034c1.118.777 2.232 1.438 3.573 1.984.056.023.151.074.265.136.331.178.822.442.981.351.22.119.445.272.669.425.237.162.474.324.707.445.165.086 1.505.387 1.575.349.29.156.716.335 1.049.417l.392-.012.756-.023c1.05.137 2.84-.002 3.803-.174.138-.024.312-.106.495-.191.288-.136.597-.28.816-.226v-.07c.119-.103.285-.11.459-.116.132-.005.27-.01.394-.058.162-.062.332-.116.506-.172.323-.103.663-.21 1.002-.385.129-.066.223-.163.32-.265.072-.075.146-.153.239-.222.164-.123.347-.18.533-.237a2 2 0 0 0 .515-.215c.085-.055.163-.144.24-.23.063-.071.124-.14.187-.188.142-.11.398-.178.653-.246.225-.06.449-.12.592-.207.209-.126.418-.299.627-.472.207-.17.414-.342.619-.467l.239-.068.746-.21a2.55 2.55 0 0 0 .25-.177c.086-.066.173-.132.24-.172.207-.121.395-.058.584.006.15.05.301.102.466.064.93-.215 1.755-.512 2.426-.765h.427c.213-.057.597-.11.967-.16.297-.04.586-.08.77-.12.239-.05.495-.028.749-.006.321.027.64.055.924-.063.015-.005 1.33.181 1.475.209.954.199 1.893.466 2.809.8.319.12.767.29 1.028.21.071.138.267.161.425.18a.933.933 0 0 1 .165.028c.173.057.378.148.571.234.124.055.244.109.346.149.171.067.343.087.508.106.134.015.261.03.378.068.499.164 1.457.595 1.934.87.187.15.372.302.559.453.259.147.539.267.804.381.191.082.375.161.538.245l.044.076.006.011.006.01.043.077c.435.278 1.528.862 2.033.905l.012-.035.021-.07v.07a.36.36 0 0 1 .033.042c.015.02.024.035.065.062.058.047.066.05.158.069l.006.001c.005-.061-.009-.063-.009-.066 0-.003.008-.005.041-.038.24.343 1.056.515 1.683.647.199.042.379.08.515.118.151.043.767.204.886.07.504.353 1.896.16 2.459.035h.558c.69-.172 1.286-.344 2.032-.627.365-.138.719-.391 1.061-.635.209-.15.412-.295.611-.409.234-.133.471-.228.707-.323a6.7 6.7 0 0 0 .539-.234v-.174a.431.431 0 0 1 .049.042c.026.024.039.037.115.063.135-.12.287-.181.448-.246.1-.04.202-.08.306-.137.424-.232.816-.433 1.218-.64.314-.16.633-.323.979-.508.161-.086.328-.178.5-.272.702-.385 1.492-.818 2.288-1.12h.328c.133-.05.269-.103.408-.157.473-.184.975-.38 1.494-.47.12-.021.299-.025.496-.029.37-.007.806-.016 1.044-.145l.016-.035.05-.104c.039-.013.093.007.153.03.045.02.093.033.142.04.421.034.917-.01 1.392-.052l.214-.018c2.152-.181 4.864.457 6.787 1.252.173.072.415.107.646.14.241.035.471.068.601.139.2.11.421.219.647.33.533.264 1.099.544 1.517.888l.295.07.043.114.022.06c.181.157.386.237.603.321.124.049.252.099.381.166l.951.661.983.383c.161.08.321.178.485.28.281.173.571.353.893.45.783.242 1.417.326 2.135.42.361.048.744.098 1.176.173.155.026.304.068.452.11.333.092.659.182 1.024.098a6.526 6.526 0 0 1 1.901-.174c.227.01.498-.062.769-.135.342-.092.683-.184.936-.108.073-.155.312-.19.567-.227.142-.021.29-.043.417-.087l.166-.053c.296-.092.794-.247 1.047-.434v-.104c.225-.09.436-.245.64-.395.094-.069.187-.137.279-.197.109-.071.225-.105.341-.14.115-.033.231-.067.347-.138.213-.13.426-.28.639-.43.179-.127.36-.254.542-.37l.006-.01.191-.234c.11-.06.201-.089.29-.116.106-.027.206-.07.299-.128.138-.088.262-.21.388-.333.198-.195.4-.393.663-.467l.49.139c.235-.114.486-.253.742-.395.441-.245.899-.499 1.324-.65.296-.104.563-.182.813-.255.322-.094.613-.18.892-.301.041-.019.108-.015.186-.012.095.005.206.01.306-.023.318-.104.618-.16.936-.22.241-.045.492-.092.769-.163l1.508.105c1.884.037 3.675.68 5.149 1.392.067.02.137.024.206.015.091-.003.186-.007.252.02.157.064.332.154.51.247.192.1.389.202.572.275.162.064.315.087.468.11.168.026.337.052.516.133.435.199.966.537 1.377.8l.393.105c.1.042.196.121.289.198.07.057.138.113.203.15.175.099.303.127.436.156.114.025.231.051.384.123.201.093.414.243.625.391.177.124.353.248.523.34.078.042.198.06.331.08.16.025.34.052.489.128.586.3 1.68.619 2.164.522l.491.174c.364.1 1.156.227 1.476.105.317.112.851.195 1.18.174 2.272-.148 4.113-.354 5.935-1.184h.361c.054-.02.122-.04.195-.065.253-.081.581-.187.755-.317.305-.228.594-.36.887-.494.233-.108.47-.216.72-.376 1.843-1.182 3.425-1.998 5.64-2.472.194-.041.442-.142.673-.236.134-.056.264-.109.375-.146l1.509-.21c1.035-.336 3.175-.654 4.558-.278.216.06.428.114.637.167.655.167 1.274.326 1.888.599l.655.14c.166.08.338.163.511.25.54.265 1.108.546 1.652.759.027-.027.035-.038.047-.044.013-.009.03-.01.085-.026v.14c.094.053.097.052.151.023a.589.589 0 0 1 .047-.024c.066.189.244.274.419.358.083.04.166.08.236.13.319.23.69.425 1.061.622.461.245.926.491 1.299.804.949.796 2.276 1.404 3.64 1.74a3 3 0 0 0 .533.066c.195.012.394.025.582.074.563.146 1.775.421 2.164.383.245-.024.71.094.852.139.406.127 2.346-.126 2.624-.279.281-.155.578-.264.875-.374.348-.129.698-.258 1.025-.461.132-.138.264-.278.395-.418.316-.225.639-.355.999-.499.101-.04.205-.082.313-.127.207-.087.421-.233.631-.376.145-.103.295-.198.45-.285.481-.255.929-.426 1.385-.6.438-.165.883-.335 1.37-.584.293-.15.598-.324.91-.503.536-.307 1.093-.626 1.648-.854.178-.073.382-.085.592-.097.142-.005.284-.019.424-.042.377-.072.694-.149.977-.218h.002c.14-.035.271-.067.398-.095.019-.059.016-.068.019-.072.002-.004.011-.004.047-.033.137.22.943-.027 1.266-.125l.045-.014-.001.001Z"/><path d="M942.314 1.795a19.18 19.18 0 0 1-.503-.093c-.386-.082-.849-.042-1.181.035-.083.019-1.325-.154-1.508-.21-.428-.132-.95-.039-1.444.05-.493.087-.959.17-1.277.02-.42.184-.959.288-1.504.393-.443.086-.891.172-1.283.303-.588.196-1.126.437-1.663.677-.307.137-.612.274-.927.402-.216.088-.407.28-.58.452-.049.05-.096.097-.142.14l-.459.174c-.185.098-.365.224-.551.353-.15.105-.303.212-.465.308-2.426 1.447-5.516 2.904-8.657 2.575-1.225-.128-2.316-.249-3.508-.626a2.01 2.01 0 0 0-.444-.074c-.135-.012-.262-.023-.376-.065-1.38-.514-2.7-1.18-3.934-1.984l-1.017-.348c-1.55-.89-3.401-1.649-5.114-2.227-.163-.055-.385-.093-.599-.13a6.247 6.247 0 0 1-.418-.08l-.394.036c-.159-.037-.336-.082-.526-.13-.975-.247-2.289-.58-3.31-.358h-.983a7.406 7.406 0 0 1-.554.082c-.363.044-.752.09-1.152.232-.114.04-.214.089-.313.137-.219.107-.432.21-.768.21l-.019.029a.69.69 0 0 1-.145.18c-.025-.063-.023-.081-.031-.088-.009-.006-.028.002-.101-.016-.245.153-.559.21-.872.269-.327.06-.653.12-.898.288l-.23.313c-.113.08-.255.105-.397.132-.151.028-.301.056-.423.146-.553.415-1.171.735-1.793 1.056-.515.267-1.032.535-1.518.86-.241.068-.481.138-.721.207-.095.05-.2.138-.301.224a1.624 1.624 0 0 1-.257.194c-.186.1-.432.135-.689.173-.22.032-.448.066-.655.14-.18.065-.354.146-.528.227-.281.131-.565.263-.883.33-.538.115-1.189.1-1.816.085-.56-.013-1.1-.026-1.528.054l-1.344.106c-.256-.148-.643-.242-.996-.327a7.71 7.71 0 0 1-.48-.127c-.138-.043-.314-.045-.498-.047-.234-.002-.481-.004-.682-.092l-.032-.07-.066-.034-1.443-.348-.099.035a1.803 1.803 0 0 0-.491-.314c-.16-.058-.372-.087-.598-.117-.294-.039-.606-.08-.845-.196-1.79-.868-3.38-1.48-5.344-2.193-.141-.05-.282-.159-.417-.262a2.119 2.119 0 0 0-.272-.19c-.252-.137-1.858-.415-2.066-.383l-2.524-.243c-.257.051-.532.044-.798.037-.305-.008-.599-.015-.842.067a2.731 2.731 0 0 1-.633.11 3.93 3.93 0 0 0-.646.099c-.503.131-1.103.29-1.541.626l-.196-.035c-.188.072-.398.14-.611.21-.436.141-.892.29-1.225.487l-.23-.035c-.24.062-.473.176-.68.277-.11.053-.211.103-.304.14l-.306.047-.152.023c-.163.082-.311.19-.458.297-.11.08-.218.158-.33.225a.558.558 0 0 1-.238.064.614.614 0 0 0-.188.04c-.17.076-.351.152-.536.23-.323.136-.658.276-.972.432-.165.08-.317.205-.467.328a2.972 2.972 0 0 1-.353.263 7.616 7.616 0 0 1-.878.433c-.168.074-.334.147-.499.229a1.043 1.043 0 0 1-.366.077c-.073.006-.14.012-.192.027-.949.28-2.079.588-3.115.87a3.31 3.31 0 0 1-.839.112c-.195.007-.391.014-.636.062l-.394-.07a5.87 5.87 0 0 0-.714-.06c-.426-.021-.906-.044-1.384-.183-.301-.088-.604-.171-.904-.255-1.34-.37-2.666-.735-3.851-1.485-.136-.087-.605-.314-.753-.21-.095-.058-.18-.122-.265-.186a2.119 2.119 0 0 0-.49-.3 1.45 1.45 0 0 0-.217-.058 1.396 1.396 0 0 1-.373-.116 6.976 6.976 0 0 1-.768-.517 9.163 9.163 0 0 0-.445-.319c-.388-.256-.842-.49-1.247-.698l-.13-.067-.524-.174c-.147-.096-.29-.192-.432-.288a10.908 10.908 0 0 0-1.176-.722c-.277-.142-1.731-.531-2.065-.382a2.767 2.767 0 0 1-.192-.095 1.905 1.905 0 0 0-.333-.15l-.568.013-1.137.023c-.917-.225-1.982-.16-2.95.209l-.984.07c-.102.023-.221.053-.35.085-.45.11-1.01.25-1.289.227-.092-.007-.209.047-.323.1-.131.06-.259.119-.333.074-.377.218-.786.377-1.189.534-.462.18-.916.357-1.304.615-.42.28-.855.502-1.303.73-.268.134-.533.274-.795.418-.054.03-.105.096-.155.16a.89.89 0 0 1-.107.119c-.234.194-.508.308-.783.424-.249.105-.5.21-.725.376a16.12 16.12 0 0 1-1.411.905c-.788.46-1.91.664-2.945.853-.509.093-.998.182-1.416.296l-.852.034c-.79.195-3.19-.037-3.771-.243a2.973 2.973 0 0 0-.639-.13c-.202-.025-.388-.049-.541-.114l-.714-.307a99.935 99.935 0 0 0-1.155-.493c-.053-.022-.111-.052-.174-.084-.192-.1-.418-.216-.613-.16-.019-.071-.018-.096-.029-.108-.011-.012-.035-.011-.102-.031-.355-.097-.812-.38-1.214-.63-.166-.102-.322-.199-.458-.275-.237-.132-.486-.199-.729-.265a4.013 4.013 0 0 1-.484-.153 3.083 3.083 0 0 1-.462-.256c-.31-.196-.638-.402-1.08-.405l-.065-.209c-.179-.008-.495-.151-.732-.258l-.12-.055a5.537 5.537 0 0 0-.672-.233c-.21-.064-.422-.127-.64-.22-.124-.052-.248-.16-.366-.265-.101-.088-.198-.173-.29-.22-.245-.13-.566-.24-.831-.331l-.152-.053-.296.034c-.095.003-.3-.076-.438-.13a2.75 2.75 0 0 0-.119-.044c-.271-.08-.565-.106-.873-.133a6.395 6.395 0 0 1-.832-.11 8.368 8.368 0 0 0-.935-.126 11.16 11.16 0 0 1-.704-.083l-.591.105c-.941-.185-2.434-.03-3.279.208-.436.123-.892.294-1.329.458-.339.127-.667.25-.965.343a3.43 3.43 0 0 1-.39.092c-.174.034-.341.066-.529.151-.251.114-.479.311-.704.506-.19.164-.378.327-.575.434-.233.127-.462.136-.702.145-.232.008-.474.017-.74.133-.24.105-.446.31-.644.508a3.327 3.327 0 0 1-.405.362c-.159.111-.39.18-.614.247a3.515 3.515 0 0 0-.403.136l-.369.164c-.726.324-1.506.673-2.287.88-.402.107-.78.268-1.16.43-.789.337-1.589.678-2.643.545l-.427.07c-.135-.022-.292-.044-.461-.068-.512-.072-1.135-.16-1.604-.28l-.46.034a13.273 13.273 0 0 0-.391-.065c-.396-.063-.857-.136-1.116-.248-.69-.297-1.421-.541-2.134-.78-.689-.23-1.36-.455-1.965-.717-.425-.183-.793-.486-1.158-.786-.343-.283-.685-.564-1.072-.745a11.65 11.65 0 0 0-1.11-.43c-.244-.082-.486-.17-.726-.266a5.02 5.02 0 0 1-.705-.387 5.824 5.824 0 0 0-.607-.344c-.287-.132-.654-.2-.994-.265-.288-.054-.559-.104-.743-.187l-.22-.098c-.265-.12-.53-.239-.797-.355h-.394a10.648 10.648 0 0 0-.913-.128c-.226-.025-.443-.05-.628-.08-.119-.02-.249 0-.387.021-.171.027-.358.057-.563.013-.461-.098-.911-.096-1.279 0-.071.019-.161-.003-.26-.028a.945.945 0 0 0-.363-.041c-1.303.185-3.584.65-4.984 1.357-.241.121-.472.283-.701.443-.204.142-.406.283-.611.393-.001.078.016.085.016.091 0 .005-.01.01-.048.048-.177-.077-.46.144-.685.319-.09.07-.172.134-.233.168-.148.082-.299.164-.451.246-.609.333-1.243.679-1.877 1.076a.68.68 0 0 0-.153.163c-.048.062-.094.122-.142.15-.073.044-.145.047-.215.05a.377.377 0 0 0-.212.055c-1.046.728-2.774 1.062-4.289 1.355-.308.06-.608.117-.892.176l-.295-.104c-.088-.017-.181.006-.283.03-.104.024-.216.05-.339.04a7.619 7.619 0 0 1-.876-.155c-.145-.032-.29-.062-.436-.09h-1.082c-1.698-.312-2.838-.838-4.262-1.496a9.604 9.604 0 0 0-.957-.365c-.236-.08-.473-.162-.716-.261l-.622-.174c-.52-.294-1.071-.537-1.622-.782-.37-.16-.737-.33-1.1-.506a.856.856 0 0 0-.316-.068.741.741 0 0 1-.209-.036l-.197-.21c-.335-.178-.676-.274-1.025-.372a6.044 6.044 0 0 1-.942-.323 4.472 4.472 0 0 1-.472-.277 4.483 4.483 0 0 0-.479-.28c-.48-.222-1.503-.408-1.935-.208-.176-.08-.625-.124-1.149-.14V.303c.288.02.578.053.855.112.101.022.237.01.371-.003.142-.012.283-.025.383.003h.557l.263.081c.174.054.349.109.525.162l.076-.023.152-.046c.227.103.44.233.654.363.196.118.391.237.593.333.112.054.228.068.346.082.122.015.248.03.375.092.213.104.441.21.67.317.317.148.638.299.937.449.11.055.219.063.32.07.074.005.143.01.205.034.477.187.96.457 1.437.724.311.174.619.346.923.494.315.153.664.273.997.387.165.057.326.112.479.17l.36.035.087.042c.507.25 1.911.941 2.045.793.23.183.575.432.852.452h.032c.214.125.512.174.807.221.164.027.327.053.473.093.29.078.554.081.806.084.217.002.426.004.636.055.165.04.392.07.492-.035.268.218.767.231 1.05.14.141-.047.343-.02.567.01.275.036.581.076.842-.01.45-.15.905-.271 1.356-.391.994-.264 1.964-.522 2.808-1.071.098-.064.239-.12.389-.18.286-.114.601-.24.694-.447.024-.027.023-.041.022-.052-.001-.016-.002-.024.076-.052.248.068.448-.116.632-.286.086-.08.17-.156.253-.202.238-.13.454-.236.665-.34.268-.13.528-.258.811-.425a2.39 2.39 0 0 0 .396-.329c.145-.138.292-.279.456-.367.69-.362 1.415-.653 2.164-.87l.897-.21.448-.104c.371-.194 1.54-.532 1.803-.487.044.008.107-.04.151-.074.02-.015.036-.027.046-.03.169-.063 1.497-.012 1.541 0h1.836c.21.047.469.075.737.104.26.027.528.056.772.105.099.02.148 0 .198-.02a.301.301 0 0 1 .227-.015l1.214.487c.36.12.722.212 1.075.302.393.1.772.198 1.122.324l.623.419c.308.159.603.261.904.365.251.086.503.174.768.295.892.41 1.756 1.002 2.557 1.601l.492.14c.276.14.613.304.951.452l.131.023.263.047c.176.092.292.112.418.134.109.018.227.039.401.11.143.057.285.117.429.176.637.265 1.291.537 1.997.728l1.312.174.558-.035c.371.126.913.278 1.409.244 1.177-.08 1.772-.228 2.689-.661.169-.08.34-.138.506-.194.237-.08.467-.157.674-.294l.131.105.394-.14c.171-.094.377-.155.603-.223.182-.054.377-.112.577-.194.129-.053.261-.142.393-.23.17-.113.339-.225.493-.257.031.019.074-.014.124-.052.078-.059.173-.13.269-.053.197-.134.355-.286.511-.435.176-.17.349-.337.571-.47l1.87-.66c.029-.022.179-.231.098-.244h.229a1.31 1.31 0 0 0 .214-.173c.09-.082.183-.168.278-.21l.623-.14c.712-.306 1.489-.524 2.262-.74.5-.14.999-.28 1.475-.443.34-.116.84-.119 1.31-.122.417-.003.812-.006 1.051-.087l.23.105c.771-.02 1.573-.008 2.262.139h.82c.054.017.12.045.191.076.128.055.273.117.399.133.488.063.909.158 1.41.278l.361-.035c.438.188.947.45 1.452.709.322.166.642.33.942.475.165.08.316.112.477.146.144.03.296.063.473.132.709.276 1.433.653 2.122 1.01.158.083.315.164.469.243.101.052.201.066.3.08a.775.775 0 0 1 .323.094c1.483.905 3.513 1.777 5.213 2.332.102.033.261.031.431.029.191-.003.396-.006.553.04.173.052.379.046.582.04.189-.005.375-.01.533.03.899.234 1.718.112 2.524-.14h.886c.216-.073.455-.123.684-.171.249-.053.484-.103.66-.176l.787-.162.393-.082c.747-.36 1.423-.79 2.105-1.225.81-.516 1.629-1.037 2.584-1.455v-.07c1.062-.61 2.169-1.16 3.377-1.74.172-.082.32-.097.48-.113a2.19 2.19 0 0 0 .373-.06c1.076-.287 1.749-.446 2.918-.592.189-.024.379-.05.569-.077.891-.127 1.792-.254 2.743-.062l1.312-.07c1.077.138 2.019.265 3.081.627.659.224 1.276.66 1.803 1.044a.76.76 0 0 0 .275.113c.088.019.172.05.25.096.666.415 1.378.855 2.002 1.242l.129.08c.778.481 1.712.81 2.492 1.079.21.072.443.25.647.408.113.087.218.167.305.218l.005.002.617.173c.784.327 1.584.58 2.418.843l.632.2c.229.074.488.068.71.063.13-.003.247-.006.339.007 1.077.158 2.344.038 3.443-.209.216-.048.41-.12.6-.19.288-.104.567-.207.908-.227l.033-.105c.17.13.402.007.591-.094.059-.032.115-.061.163-.08l.368-.138c.585-.216 1.158-.429 1.665-.801.363-.268.685-.398 1.058-.548.16-.065.33-.133.515-.218a8.4 8.4 0 0 0 1.247-.731c.226-.157.648-.261 1.049-.36.257-.064.505-.125.689-.197.728-.285 1.451-.5 2.19-.72.734-.218 1.483-.44 2.269-.742.266.055.876-.102 1.148-.174.035-.009.167.003.311.016.146.012.302.026.377.02.67-.06 1.404-.126 2.066.035.186-.013.372-.024.557-.035.205.036.471.048.736.06.368.015.735.031.936.113.038.016.082.037.13.06.188.091.437.212.624.114 2.98 1.391 5.923 2.466 9.01 3.593l.073.027c.256.094.475.112.684.13.167.014.328.028.497.079 1.142.345 2.54.667 3.442.487.281-.056.638-.018 1.002.021.441.047.893.095 1.228-.021l.052-.019c.132-.05.381-.142.637-.12l.197.104c.301-.079.603-.205.894-.328.165-.069.326-.137.482-.194h.361c.327-.097.747-.236 1.114-.383.193-.077.376-.203.554-.326.146-.1.29-.2.431-.265.196-.093.351-.119.505-.145.15-.025.297-.05.479-.134.195-.09.373-.225.553-.361.261-.197.528-.398.856-.474.007-.078.003-.103.012-.122.006-.013.017-.022.041-.042l.013-.01c.2.095.597-.234.778-.384l.041-.034c.1-.081.228-.105.342-.126.067-.013.131-.025.183-.048l.426-.313c.111-.047.243-.037.366-.027a.719.719 0 0 0 .257-.007c.185-.06.461-.24.668-.376l.119-.077c.158-.1.388-.137.604-.171.204-.033.396-.063.511-.143.895-.616 3.295-1.06 4.886-.87.123.015.285-.01.445-.035.162-.025.321-.05.439-.034 1.737.233 3.663.64 5.247 1.322.214.093.471.143.72.192.258.05.507.1.689.192.262.131.534.272.809.414.564.292 1.144.592 1.683.838.086.04.165.04.239.04a.443.443 0 0 1 .188.03c.336.155.656.365.98.576.362.237.726.475 1.118.642l.093.04c.251.107.787.337.891.343.022-.015.044-.03.066-.047l.033-.023c.261.229.695.545 1.081.522v.07c.202.101 1.141.357 1.214.348l1.278.278h.002l2.359.245 1.541-.036c.348-.163.808-.259 1.264-.354.449-.093.896-.186 1.228-.342.083-.039.176-.12.264-.196a1.33 1.33 0 0 1 .195-.152l.427-.035c.283-.13.583-.268.853-.383.268-.115.531-.3.799-.488.21-.147.422-.297.643-.417.212-.112.429-.215.649-.31.302-.134.596-.265.826-.42.175-.118.354-.251.536-.386.321-.238.65-.481.973-.659.171-.093.35-.138.529-.183.189-.048.378-.095.553-.2l.042-.091.023-.048.197.035c.12-.037.267-.078.416-.12a6.74 6.74 0 0 0 .634-.193c1.774-.731 4.623-1.118 6.884-.696.178.033.34.002.511-.03.221-.043.458-.089.769-.005.439.118.958.21 1.476.302L944 1v1h-.942l-.744-.205Z"/></g></g></svg>